<?xml version="1.0" encoding="utf-8" standalone="no"?>
<!DOCTYPE svg PUBLIC "-//W3C//DTD SVG 1.1//EN"
  "http://www.w3.org/Graphics/SVG/1.1/DTD/svg11.dtd">
<svg xmlns:xlink="http://www.w3.org/1999/xlink" width="1584pt" height="1008pt" viewBox="0 0 1584 1008" xmlns="http://www.w3.org/2000/svg" version="1.1">
 <metadata>
  <rdf:RDF xmlns:dc="http://purl.org/dc/elements/1.1/" xmlns:cc="http://creativecommons.org/ns#" xmlns:rdf="http://www.w3.org/1999/02/22-rdf-syntax-ns#">
   <cc:Work>
    <dc:type rdf:resource="http://purl.org/dc/dcmitype/StillImage"/>
    <dc:date>2025-05-11T04:11:06.119676</dc:date>
    <dc:format>image/svg+xml</dc:format>
    <dc:creator>
     <cc:Agent>
      <dc:title>Matplotlib v3.6.3, https://matplotlib.org/</dc:title>
     </cc:Agent>
    </dc:creator>
   </cc:Work>
  </rdf:RDF>
 </metadata>
 <defs>
  <style type="text/css">*{stroke-linejoin: round; stroke-linecap: butt}</style>
 </defs>
 <g id="figure_1">
  <g id="patch_1">
   <path d="M 0 1008 
L 1584 1008 
L 1584 0 
L 0 0 
z
" style="fill: #ffffff"/>
  </g>
  <g id="axes_1">
   <g id="patch_2">
    <path d="M 641.648515 217.559381 
Q 626.387246 266.460653 611.459054 314.294658 
" clip-path="url(#pdf4489cca8)" style="fill: none; stroke: #0000ff; stroke-linecap: round"/>
    <path d="M 617.660727 307.849563 
L 611.459054 314.294658 
L 610.023981 305.466262 
L 617.660727 307.849563 
z
" clip-path="url(#pdf4489cca8)" style="fill: #0000ff; stroke: #0000ff; stroke-linecap: round"/>
   </g>
   <g id="patch_3">
    <path d="M 648.916985 546.944412 
Q 419.274648 595.694023 190.725973 644.211465 
" clip-path="url(#pdf4489cca8)" style="fill: none; stroke: #0000ff; stroke-linecap: round"/>
    <path d="M 199.382216 646.463012 
L 190.725973 644.211465 
L 197.720956 638.637399 
L 199.382216 646.463012 
z
" clip-path="url(#pdf4489cca8)" style="fill: #0000ff; stroke: #0000ff; stroke-linecap: round"/>
   </g>
   <g id="patch_4">
    <path d="M 526.472084 857.023497 
Q 655.344296 816.339265 783.150342 775.991615 
" clip-path="url(#pdf4489cca8)" style="fill: none; stroke: #0000ff; stroke-linecap: round"/>
    <path d="M 774.317276 774.585571 
L 783.150342 775.991615 
L 776.725668 782.214441 
L 774.317276 774.585571 
z
" clip-path="url(#pdf4489cca8)" style="fill: #0000ff; stroke: #0000ff; stroke-linecap: round"/>
   </g>
   <g id="patch_5">
    <path d="M 801.978725 580.734911 
Q 1036.981431 624.659017 1270.885134 668.377709 
" clip-path="url(#pdf4489cca8)" style="fill: none; stroke: #0000ff; stroke-linecap: round"/>
    <path d="M 1263.756225 662.975982 
L 1270.885134 668.377709 
L 1262.286407 670.8398 
L 1263.756225 662.975982 
z
" clip-path="url(#pdf4489cca8)" style="fill: #0000ff; stroke: #0000ff; stroke-linecap: round"/>
   </g>
   <g id="patch_6">
    <path d="M 1355.621889 404.045763 
Q 1325.331628 435.919696 1295.811547 466.983183 
" clip-path="url(#pdf4489cca8)" style="fill: none; stroke: #0000ff; stroke-linecap: round"/>
    <path d="M 1304.222043 463.939575 
L 1295.811547 466.983183 
L 1298.422959 458.428621 
L 1304.222043 463.939575 
z
" clip-path="url(#pdf4489cca8)" style="fill: #0000ff; stroke: #0000ff; stroke-linecap: round"/>
   </g>
   <g id="patch_7">
    <path d="M 245.495841 473.574094 
Q 210.52368 550.231657 176.015569 625.872039 
" clip-path="url(#pdf4489cca8)" style="fill: none; stroke: #0000ff; stroke-linecap: round"/>
    <path d="M 182.975224 620.253925 
L 176.015569 625.872039 
L 175.696871 616.933447 
L 182.975224 620.253925 
z
" clip-path="url(#pdf4489cca8)" style="fill: #0000ff; stroke: #0000ff; stroke-linecap: round"/>
   </g>
   <g id="patch_8">
    <path d="M 625.603727 327.206601 
Q 827.039181 216.787993 1027.494234 106.9068 
" clip-path="url(#pdf4489cca8)" style="fill: none; stroke: #008000; stroke-linecap: round"/>
    <path d="M 1018.556345 107.244642 
L 1027.494234 106.9068 
L 1022.401775 114.259817 
L 1018.556345 107.244642 
z
" clip-path="url(#pdf4489cca8)" style="fill: #008000; stroke: #008000; stroke-linecap: round"/>
   </g>
   <g id="patch_9">
    <path d="M 581.458085 350.683785 
Q 370.56555 459.437433 160.666704 567.678652 
" clip-path="url(#pdf4489cca8)" style="fill: none; stroke: #ffa500; stroke-linecap: round"/>
    <path d="M 169.61028 567.567144 
L 160.666704 567.678652 
L 165.943643 560.456886 
L 169.61028 567.567144 
z
" clip-path="url(#pdf4489cca8)" style="fill: #ffa500; stroke: #ffa500; stroke-linecap: round"/>
   </g>
   <g id="patch_10">
    <path d="M 579.140883 334.442493 
Q 386.630518 296.921658 195.217539 259.614706 
" clip-path="url(#pdf4489cca8)" style="fill: none; stroke: #ffa500; stroke-linecap: round"/>
    <path d="M 202.304573 265.071256 
L 195.217539 259.614706 
L 203.834999 257.219009 
L 202.304573 265.071256 
z
" clip-path="url(#pdf4489cca8)" style="fill: #ffa500; stroke: #ffa500; stroke-linecap: round"/>
   </g>
   <g id="patch_11">
    <path d="M 605.119678 314.267024 
Q 610.946194 213.349817 616.708267 113.548785 
" clip-path="url(#pdf4489cca8)" style="fill: none; stroke: #800080; stroke-linecap: round"/>
    <path d="M 612.2538 121.304926 
L 616.708267 113.548785 
L 620.2405 121.766043 
L 612.2538 121.304926 
z
" clip-path="url(#pdf4489cca8)" style="fill: #800080; stroke: #800080; stroke-linecap: round"/>
   </g>
   <g id="patch_12">
    <path d="M 162.596491 624.768112 
Q 155.119474 552.638327 147.757735 481.620616 
" clip-path="url(#pdf4489cca8)" style="fill: none; stroke: #008000; stroke-linecap: round"/>
    <path d="M 144.603919 489.99041 
L 147.757735 481.620616 
L 152.56128 489.165545 
L 144.603919 489.99041 
z
" clip-path="url(#pdf4489cca8)" style="fill: #008000; stroke: #008000; stroke-linecap: round"/>
   </g>
   <g id="patch_13">
    <path d="M 829.308899 781.297725 
Q 929.136409 843.164714 1028.013587 904.442746 
" clip-path="url(#pdf4489cca8)" style="fill: none; stroke: #008000; stroke-linecap: round"/>
    <path d="M 1023.320688 896.828503 
L 1028.013587 904.442746 
L 1019.106453 903.62852 
L 1023.320688 896.828503 
z
" clip-path="url(#pdf4489cca8)" style="fill: #008000; stroke: #008000; stroke-linecap: round"/>
   </g>
   <g id="patch_14">
    <path d="M 1320.096041 664.749013 
Q 1347.695961 654.866299 1374.24329 645.360487 
" clip-path="url(#pdf4489cca8)" style="fill: none; stroke: #008000; stroke-linecap: round"/>
    <path d="M 1365.363127 644.291513 
L 1374.24329 645.360487 
L 1368.060013 651.823233 
L 1365.363127 644.291513 
z
" clip-path="url(#pdf4489cca8)" style="fill: #008000; stroke: #008000; stroke-linecap: round"/>
   </g>
   <g id="patch_15">
    <path d="M 1312.211713 653.686402 
Q 1371.551536 579.793954 1430.191305 506.773242 
" clip-path="url(#pdf4489cca8)" style="fill: none; stroke: #ffa500; stroke-linecap: round"/>
    <path d="M 1422.063308 510.506292 
L 1430.191305 506.773242 
L 1428.300947 515.51547 
L 1422.063308 510.506292 
z
" clip-path="url(#pdf4489cca8)" style="fill: #ffa500; stroke: #ffa500; stroke-linecap: round"/>
   </g>
   <g id="patch_16">
    <path d="M 1289.649657 463.894584 
Q 1347.747946 355.743157 1405.317143 248.576648 
" clip-path="url(#pdf4489cca8)" style="fill: none; stroke: #008000; stroke-linecap: round"/>
    <path d="M 1398.007525 253.731207 
L 1405.317143 248.576648 
L 1405.055019 257.517078 
L 1398.007525 253.731207 
z
" clip-path="url(#pdf4489cca8)" style="fill: #008000; stroke: #008000; stroke-linecap: round"/>
   </g>
   <g id="patch_17">
    <path d="M 1005.506136 545.675122 
Q 1057.365288 386.915271 1108.877284 229.218191 
" clip-path="url(#pdf4489cca8)" style="fill: none; stroke: #800080; stroke-linecap: round"/>
    <path d="M 1102.590953 235.580741 
L 1108.877284 229.218191 
L 1110.195525 238.064786 
L 1102.590953 235.580741 
z
" clip-path="url(#pdf4489cca8)" style="fill: #800080; stroke: #800080; stroke-linecap: round"/>
   </g>
   <g id="patch_18">
    <path d="M 986.218489 591.627242 
Q 906.558282 744.985632 827.413443 897.351855 
" clip-path="url(#pdf4489cca8)" style="fill: none; stroke: #800080; stroke-linecap: round"/>
    <path d="M 834.650808 892.09633 
L 827.413443 897.351855 
L 827.551442 888.408647 
L 834.650808 892.09633 
z
" clip-path="url(#pdf4489cca8)" style="fill: #800080; stroke: #800080; stroke-linecap: round"/>
   </g>
   <g id="PathCollection_1">
    <defs>
     <path id="me5cbb63892" d="M 0 25 
C 6.630078 25 12.989497 22.365842 17.67767 17.67767 
C 22.365842 12.989497 25 6.630078 25 0 
C 25 -6.630078 22.365842 -12.989497 17.67767 -17.67767 
C 12.989497 -22.365842 6.630078 -25 0 -25 
C -6.630078 -25 -12.989497 -22.365842 -17.67767 -17.67767 
C -22.365842 -12.989497 -25 -6.630078 -25 0 
C -25 6.630078 -22.365842 12.989497 -17.67767 17.67767 
C -12.989497 22.365842 -6.630078 25 0 25 
z
" style="stroke: #87ceeb; stroke-width: 1.5"/>
    </defs>
    <g clip-path="url(#pdf4489cca8)">
     <use xlink:href="#me5cbb63892" x="649.095557" y="193.697022" style="fill: #87ceeb; stroke: #87ceeb; stroke-width: 1.5"/>
     <use xlink:href="#me5cbb63892" x="673.37068" y="541.753261" style="fill: #87ceeb; stroke: #87ceeb; stroke-width: 1.5"/>
     <use xlink:href="#me5cbb63892" x="502.634085" y="864.549019" style="fill: #87ceeb; stroke: #87ceeb; stroke-width: 1.5"/>
     <use xlink:href="#me5cbb63892" x="777.401561" y="576.141219" style="fill: #87ceeb; stroke: #87ceeb; stroke-width: 1.5"/>
     <use xlink:href="#me5cbb63892" x="1372.844389" y="385.922815" style="fill: #87ceeb; stroke: #87ceeb; stroke-width: 1.5"/>
     <use xlink:href="#me5cbb63892" x="255.871119" y="450.831905" style="fill: #87ceeb; stroke: #87ceeb; stroke-width: 1.5"/>
     <use xlink:href="#me5cbb63892" x="603.678714" y="339.224989" style="fill: #87ceeb; stroke: #87ceeb; stroke-width: 1.5"/>
     <use xlink:href="#me5cbb63892" x="165.174281" y="649.635705" style="fill: #87ceeb; stroke: #87ceeb; stroke-width: 1.5"/>
     <use xlink:href="#me5cbb63892" x="808.058738" y="768.128174" style="fill: #87ceeb; stroke: #87ceeb; stroke-width: 1.5"/>
     <use xlink:href="#me5cbb63892" x="1296.560002" y="673.176571" style="fill: #87ceeb; stroke: #87ceeb; stroke-width: 1.5"/>
     <use xlink:href="#me5cbb63892" x="1277.820497" y="485.914863" style="fill: #87ceeb; stroke: #87ceeb; stroke-width: 1.5"/>
     <use xlink:href="#me5cbb63892" x="997.743151" y="569.440462" style="fill: #87ceeb; stroke: #87ceeb; stroke-width: 1.5"/>
     <use xlink:href="#me5cbb63892" x="1050.39956" y="94.351045" style="fill: #87ceeb; stroke: #87ceeb; stroke-width: 1.5"/>
     <use xlink:href="#me5cbb63892" x="145.065005" y="455.64421" style="fill: #87ceeb; stroke: #87ceeb; stroke-width: 1.5"/>
     <use xlink:href="#me5cbb63892" x="1050.216723" y="918.202893" style="fill: #87ceeb; stroke: #87ceeb; stroke-width: 1.5"/>
     <use xlink:href="#me5cbb63892" x="1398.831441" y="636.556199" style="fill: #87ceeb; stroke: #87ceeb; stroke-width: 1.5"/>
     <use xlink:href="#me5cbb63892" x="494.694318" y="63.220204" style="fill: #87ceeb; stroke: #87ceeb; stroke-width: 1.5"/>
     <use xlink:href="#me5cbb63892" x="1417.679027" y="225.56469" style="fill: #87ceeb; stroke: #87ceeb; stroke-width: 1.5"/>
     <use xlink:href="#me5cbb63892" x="580.336343" y="920.056916" style="fill: #87ceeb; stroke: #87ceeb; stroke-width: 1.5"/>
     <use xlink:href="#me5cbb63892" x="1446.545455" y="486.408367" style="fill: #87ceeb; stroke: #87ceeb; stroke-width: 1.5"/>
     <use xlink:href="#me5cbb63892" x="137.454545" y="579.648762" style="fill: #87ceeb; stroke: #87ceeb; stroke-width: 1.5"/>
     <use xlink:href="#me5cbb63892" x="169.581992" y="254.618263" style="fill: #87ceeb; stroke: #87ceeb; stroke-width: 1.5"/>
     <use xlink:href="#me5cbb63892" x="618.213879" y="87.471074" style="fill: #87ceeb; stroke: #87ceeb; stroke-width: 1.5"/>
     <use xlink:href="#me5cbb63892" x="1116.987259" y="204.390589" style="fill: #87ceeb; stroke: #87ceeb; stroke-width: 1.5"/>
     <use xlink:href="#me5cbb63892" x="815.374387" y="920.528926" style="fill: #87ceeb; stroke: #87ceeb; stroke-width: 1.5"/>
    </g>
   </g>
   <g id="line2d_1"/>
   <g id="line2d_2"/>
   <g id="line2d_3"/>
   <g id="line2d_4"/>
   <g id="text_1">
    <g clip-path="url(#pdf4489cca8)">
     <!-- Auth Module -->
     <g transform="translate(617.606495 196.456397) scale(0.1 -0.1)">
      <defs>
       <path id="DejaVuSans-41" d="M 2188 4044 
L 1331 1722 
L 3047 1722 
L 2188 4044 
z
M 1831 4666 
L 2547 4666 
L 4325 0 
L 3669 0 
L 3244 1197 
L 1141 1197 
L 716 0 
L 50 0 
L 1831 4666 
z
" transform="scale(0.015625)"/>
       <path id="DejaVuSans-75" d="M 544 1381 
L 544 3500 
L 1119 3500 
L 1119 1403 
Q 1119 906 1312 657 
Q 1506 409 1894 409 
Q 2359 409 2629 706 
Q 2900 1003 2900 1516 
L 2900 3500 
L 3475 3500 
L 3475 0 
L 2900 0 
L 2900 538 
Q 2691 219 2414 64 
Q 2138 -91 1772 -91 
Q 1169 -91 856 284 
Q 544 659 544 1381 
z
M 1991 3584 
L 1991 3584 
z
" transform="scale(0.015625)"/>
       <path id="DejaVuSans-74" d="M 1172 4494 
L 1172 3500 
L 2356 3500 
L 2356 3053 
L 1172 3053 
L 1172 1153 
Q 1172 725 1289 603 
Q 1406 481 1766 481 
L 2356 481 
L 2356 0 
L 1766 0 
Q 1100 0 847 248 
Q 594 497 594 1153 
L 594 3053 
L 172 3053 
L 172 3500 
L 594 3500 
L 594 4494 
L 1172 4494 
z
" transform="scale(0.015625)"/>
       <path id="DejaVuSans-68" d="M 3513 2113 
L 3513 0 
L 2938 0 
L 2938 2094 
Q 2938 2591 2744 2837 
Q 2550 3084 2163 3084 
Q 1697 3084 1428 2787 
Q 1159 2491 1159 1978 
L 1159 0 
L 581 0 
L 581 4863 
L 1159 4863 
L 1159 2956 
Q 1366 3272 1645 3428 
Q 1925 3584 2291 3584 
Q 2894 3584 3203 3211 
Q 3513 2838 3513 2113 
z
" transform="scale(0.015625)"/>
       <path id="DejaVuSans-20" transform="scale(0.015625)"/>
       <path id="DejaVuSans-4d" d="M 628 4666 
L 1569 4666 
L 2759 1491 
L 3956 4666 
L 4897 4666 
L 4897 0 
L 4281 0 
L 4281 4097 
L 3078 897 
L 2444 897 
L 1241 4097 
L 1241 0 
L 628 0 
L 628 4666 
z
" transform="scale(0.015625)"/>
       <path id="DejaVuSans-6f" d="M 1959 3097 
Q 1497 3097 1228 2736 
Q 959 2375 959 1747 
Q 959 1119 1226 758 
Q 1494 397 1959 397 
Q 2419 397 2687 759 
Q 2956 1122 2956 1747 
Q 2956 2369 2687 2733 
Q 2419 3097 1959 3097 
z
M 1959 3584 
Q 2709 3584 3137 3096 
Q 3566 2609 3566 1747 
Q 3566 888 3137 398 
Q 2709 -91 1959 -91 
Q 1206 -91 779 398 
Q 353 888 353 1747 
Q 353 2609 779 3096 
Q 1206 3584 1959 3584 
z
" transform="scale(0.015625)"/>
       <path id="DejaVuSans-64" d="M 2906 2969 
L 2906 4863 
L 3481 4863 
L 3481 0 
L 2906 0 
L 2906 525 
Q 2725 213 2448 61 
Q 2172 -91 1784 -91 
Q 1150 -91 751 415 
Q 353 922 353 1747 
Q 353 2572 751 3078 
Q 1150 3584 1784 3584 
Q 2172 3584 2448 3432 
Q 2725 3281 2906 2969 
z
M 947 1747 
Q 947 1113 1208 752 
Q 1469 391 1925 391 
Q 2381 391 2643 752 
Q 2906 1113 2906 1747 
Q 2906 2381 2643 2742 
Q 2381 3103 1925 3103 
Q 1469 3103 1208 2742 
Q 947 2381 947 1747 
z
" transform="scale(0.015625)"/>
       <path id="DejaVuSans-6c" d="M 603 4863 
L 1178 4863 
L 1178 0 
L 603 0 
L 603 4863 
z
" transform="scale(0.015625)"/>
       <path id="DejaVuSans-65" d="M 3597 1894 
L 3597 1613 
L 953 1613 
Q 991 1019 1311 708 
Q 1631 397 2203 397 
Q 2534 397 2845 478 
Q 3156 559 3463 722 
L 3463 178 
Q 3153 47 2828 -22 
Q 2503 -91 2169 -91 
Q 1331 -91 842 396 
Q 353 884 353 1716 
Q 353 2575 817 3079 
Q 1281 3584 2069 3584 
Q 2775 3584 3186 3129 
Q 3597 2675 3597 1894 
z
M 3022 2063 
Q 3016 2534 2758 2815 
Q 2500 3097 2075 3097 
Q 1594 3097 1305 2825 
Q 1016 2553 972 2059 
L 3022 2063 
z
" transform="scale(0.015625)"/>
      </defs>
      <use xlink:href="#DejaVuSans-41"/>
      <use xlink:href="#DejaVuSans-75" x="68.408203"/>
      <use xlink:href="#DejaVuSans-74" x="131.787109"/>
      <use xlink:href="#DejaVuSans-68" x="170.996094"/>
      <use xlink:href="#DejaVuSans-20" x="234.375"/>
      <use xlink:href="#DejaVuSans-4d" x="266.162109"/>
      <use xlink:href="#DejaVuSans-6f" x="352.441406"/>
      <use xlink:href="#DejaVuSans-64" x="413.623047"/>
      <use xlink:href="#DejaVuSans-75" x="477.099609"/>
      <use xlink:href="#DejaVuSans-6c" x="540.478516"/>
      <use xlink:href="#DejaVuSans-65" x="568.261719"/>
     </g>
    </g>
   </g>
   <g id="text_2">
    <g clip-path="url(#pdf4489cca8)">
     <!-- Pomodoro Timer -->
     <g transform="translate(632.433961 544.512636) scale(0.1 -0.1)">
      <defs>
       <path id="DejaVuSans-50" d="M 1259 4147 
L 1259 2394 
L 2053 2394 
Q 2494 2394 2734 2622 
Q 2975 2850 2975 3272 
Q 2975 3691 2734 3919 
Q 2494 4147 2053 4147 
L 1259 4147 
z
M 628 4666 
L 2053 4666 
Q 2838 4666 3239 4311 
Q 3641 3956 3641 3272 
Q 3641 2581 3239 2228 
Q 2838 1875 2053 1875 
L 1259 1875 
L 1259 0 
L 628 0 
L 628 4666 
z
" transform="scale(0.015625)"/>
       <path id="DejaVuSans-6d" d="M 3328 2828 
Q 3544 3216 3844 3400 
Q 4144 3584 4550 3584 
Q 5097 3584 5394 3201 
Q 5691 2819 5691 2113 
L 5691 0 
L 5113 0 
L 5113 2094 
Q 5113 2597 4934 2840 
Q 4756 3084 4391 3084 
Q 3944 3084 3684 2787 
Q 3425 2491 3425 1978 
L 3425 0 
L 2847 0 
L 2847 2094 
Q 2847 2600 2669 2842 
Q 2491 3084 2119 3084 
Q 1678 3084 1418 2786 
Q 1159 2488 1159 1978 
L 1159 0 
L 581 0 
L 581 3500 
L 1159 3500 
L 1159 2956 
Q 1356 3278 1631 3431 
Q 1906 3584 2284 3584 
Q 2666 3584 2933 3390 
Q 3200 3197 3328 2828 
z
" transform="scale(0.015625)"/>
       <path id="DejaVuSans-72" d="M 2631 2963 
Q 2534 3019 2420 3045 
Q 2306 3072 2169 3072 
Q 1681 3072 1420 2755 
Q 1159 2438 1159 1844 
L 1159 0 
L 581 0 
L 581 3500 
L 1159 3500 
L 1159 2956 
Q 1341 3275 1631 3429 
Q 1922 3584 2338 3584 
Q 2397 3584 2469 3576 
Q 2541 3569 2628 3553 
L 2631 2963 
z
" transform="scale(0.015625)"/>
       <path id="DejaVuSans-54" d="M -19 4666 
L 3928 4666 
L 3928 4134 
L 2272 4134 
L 2272 0 
L 1638 0 
L 1638 4134 
L -19 4134 
L -19 4666 
z
" transform="scale(0.015625)"/>
       <path id="DejaVuSans-69" d="M 603 3500 
L 1178 3500 
L 1178 0 
L 603 0 
L 603 3500 
z
M 603 4863 
L 1178 4863 
L 1178 4134 
L 603 4134 
L 603 4863 
z
" transform="scale(0.015625)"/>
      </defs>
      <use xlink:href="#DejaVuSans-50"/>
      <use xlink:href="#DejaVuSans-6f" x="56.677734"/>
      <use xlink:href="#DejaVuSans-6d" x="117.859375"/>
      <use xlink:href="#DejaVuSans-6f" x="215.271484"/>
      <use xlink:href="#DejaVuSans-64" x="276.453125"/>
      <use xlink:href="#DejaVuSans-6f" x="339.929688"/>
      <use xlink:href="#DejaVuSans-72" x="401.111328"/>
      <use xlink:href="#DejaVuSans-6f" x="439.974609"/>
      <use xlink:href="#DejaVuSans-20" x="501.15625"/>
      <use xlink:href="#DejaVuSans-54" x="532.943359"/>
      <use xlink:href="#DejaVuSans-69" x="590.902344"/>
      <use xlink:href="#DejaVuSans-6d" x="618.685547"/>
      <use xlink:href="#DejaVuSans-65" x="716.097656"/>
      <use xlink:href="#DejaVuSans-72" x="777.621094"/>
     </g>
    </g>
   </g>
   <g id="text_3">
    <g clip-path="url(#pdf4489cca8)">
     <!-- Task Manager -->
     <g transform="translate(468.334867 867.308394) scale(0.1 -0.1)">
      <defs>
       <path id="DejaVuSans-61" d="M 2194 1759 
Q 1497 1759 1228 1600 
Q 959 1441 959 1056 
Q 959 750 1161 570 
Q 1363 391 1709 391 
Q 2188 391 2477 730 
Q 2766 1069 2766 1631 
L 2766 1759 
L 2194 1759 
z
M 3341 1997 
L 3341 0 
L 2766 0 
L 2766 531 
Q 2569 213 2275 61 
Q 1981 -91 1556 -91 
Q 1019 -91 701 211 
Q 384 513 384 1019 
Q 384 1609 779 1909 
Q 1175 2209 1959 2209 
L 2766 2209 
L 2766 2266 
Q 2766 2663 2505 2880 
Q 2244 3097 1772 3097 
Q 1472 3097 1187 3025 
Q 903 2953 641 2809 
L 641 3341 
Q 956 3463 1253 3523 
Q 1550 3584 1831 3584 
Q 2591 3584 2966 3190 
Q 3341 2797 3341 1997 
z
" transform="scale(0.015625)"/>
       <path id="DejaVuSans-73" d="M 2834 3397 
L 2834 2853 
Q 2591 2978 2328 3040 
Q 2066 3103 1784 3103 
Q 1356 3103 1142 2972 
Q 928 2841 928 2578 
Q 928 2378 1081 2264 
Q 1234 2150 1697 2047 
L 1894 2003 
Q 2506 1872 2764 1633 
Q 3022 1394 3022 966 
Q 3022 478 2636 193 
Q 2250 -91 1575 -91 
Q 1294 -91 989 -36 
Q 684 19 347 128 
L 347 722 
Q 666 556 975 473 
Q 1284 391 1588 391 
Q 1994 391 2212 530 
Q 2431 669 2431 922 
Q 2431 1156 2273 1281 
Q 2116 1406 1581 1522 
L 1381 1569 
Q 847 1681 609 1914 
Q 372 2147 372 2553 
Q 372 3047 722 3315 
Q 1072 3584 1716 3584 
Q 2034 3584 2315 3537 
Q 2597 3491 2834 3397 
z
" transform="scale(0.015625)"/>
       <path id="DejaVuSans-6b" d="M 581 4863 
L 1159 4863 
L 1159 1991 
L 2875 3500 
L 3609 3500 
L 1753 1863 
L 3688 0 
L 2938 0 
L 1159 1709 
L 1159 0 
L 581 0 
L 581 4863 
z
" transform="scale(0.015625)"/>
       <path id="DejaVuSans-6e" d="M 3513 2113 
L 3513 0 
L 2938 0 
L 2938 2094 
Q 2938 2591 2744 2837 
Q 2550 3084 2163 3084 
Q 1697 3084 1428 2787 
Q 1159 2491 1159 1978 
L 1159 0 
L 581 0 
L 581 3500 
L 1159 3500 
L 1159 2956 
Q 1366 3272 1645 3428 
Q 1925 3584 2291 3584 
Q 2894 3584 3203 3211 
Q 3513 2838 3513 2113 
z
" transform="scale(0.015625)"/>
       <path id="DejaVuSans-67" d="M 2906 1791 
Q 2906 2416 2648 2759 
Q 2391 3103 1925 3103 
Q 1463 3103 1205 2759 
Q 947 2416 947 1791 
Q 947 1169 1205 825 
Q 1463 481 1925 481 
Q 2391 481 2648 825 
Q 2906 1169 2906 1791 
z
M 3481 434 
Q 3481 -459 3084 -895 
Q 2688 -1331 1869 -1331 
Q 1566 -1331 1297 -1286 
Q 1028 -1241 775 -1147 
L 775 -588 
Q 1028 -725 1275 -790 
Q 1522 -856 1778 -856 
Q 2344 -856 2625 -561 
Q 2906 -266 2906 331 
L 2906 616 
Q 2728 306 2450 153 
Q 2172 0 1784 0 
Q 1141 0 747 490 
Q 353 981 353 1791 
Q 353 2603 747 3093 
Q 1141 3584 1784 3584 
Q 2172 3584 2450 3431 
Q 2728 3278 2906 2969 
L 2906 3500 
L 3481 3500 
L 3481 434 
z
" transform="scale(0.015625)"/>
      </defs>
      <use xlink:href="#DejaVuSans-54"/>
      <use xlink:href="#DejaVuSans-61" x="44.583984"/>
      <use xlink:href="#DejaVuSans-73" x="105.863281"/>
      <use xlink:href="#DejaVuSans-6b" x="157.962891"/>
      <use xlink:href="#DejaVuSans-20" x="215.873047"/>
      <use xlink:href="#DejaVuSans-4d" x="247.660156"/>
      <use xlink:href="#DejaVuSans-61" x="333.939453"/>
      <use xlink:href="#DejaVuSans-6e" x="395.21875"/>
      <use xlink:href="#DejaVuSans-61" x="458.597656"/>
      <use xlink:href="#DejaVuSans-67" x="519.876953"/>
      <use xlink:href="#DejaVuSans-65" x="583.353516"/>
      <use xlink:href="#DejaVuSans-72" x="644.876953"/>
     </g>
    </g>
   </g>
   <g id="text_4">
    <g clip-path="url(#pdf4489cca8)">
     <!-- Music Player -->
     <g transform="translate(746.027342 578.900594) scale(0.1 -0.1)">
      <defs>
       <path id="DejaVuSans-63" d="M 3122 3366 
L 3122 2828 
Q 2878 2963 2633 3030 
Q 2388 3097 2138 3097 
Q 1578 3097 1268 2742 
Q 959 2388 959 1747 
Q 959 1106 1268 751 
Q 1578 397 2138 397 
Q 2388 397 2633 464 
Q 2878 531 3122 666 
L 3122 134 
Q 2881 22 2623 -34 
Q 2366 -91 2075 -91 
Q 1284 -91 818 406 
Q 353 903 353 1747 
Q 353 2603 823 3093 
Q 1294 3584 2113 3584 
Q 2378 3584 2631 3529 
Q 2884 3475 3122 3366 
z
" transform="scale(0.015625)"/>
       <path id="DejaVuSans-79" d="M 2059 -325 
Q 1816 -950 1584 -1140 
Q 1353 -1331 966 -1331 
L 506 -1331 
L 506 -850 
L 844 -850 
Q 1081 -850 1212 -737 
Q 1344 -625 1503 -206 
L 1606 56 
L 191 3500 
L 800 3500 
L 1894 763 
L 2988 3500 
L 3597 3500 
L 2059 -325 
z
" transform="scale(0.015625)"/>
      </defs>
      <use xlink:href="#DejaVuSans-4d"/>
      <use xlink:href="#DejaVuSans-75" x="86.279297"/>
      <use xlink:href="#DejaVuSans-73" x="149.658203"/>
      <use xlink:href="#DejaVuSans-69" x="201.757812"/>
      <use xlink:href="#DejaVuSans-63" x="229.541016"/>
      <use xlink:href="#DejaVuSans-20" x="284.521484"/>
      <use xlink:href="#DejaVuSans-50" x="316.308594"/>
      <use xlink:href="#DejaVuSans-6c" x="376.611328"/>
      <use xlink:href="#DejaVuSans-61" x="404.394531"/>
      <use xlink:href="#DejaVuSans-79" x="465.673828"/>
      <use xlink:href="#DejaVuSans-65" x="524.853516"/>
      <use xlink:href="#DejaVuSans-72" x="586.376953"/>
     </g>
    </g>
   </g>
   <g id="text_5">
    <g clip-path="url(#pdf4489cca8)">
     <!-- Theme Customizer -->
     <g transform="translate(1325.709233 388.68219) scale(0.1 -0.1)">
      <defs>
       <path id="DejaVuSans-43" d="M 4122 4306 
L 4122 3641 
Q 3803 3938 3442 4084 
Q 3081 4231 2675 4231 
Q 1875 4231 1450 3742 
Q 1025 3253 1025 2328 
Q 1025 1406 1450 917 
Q 1875 428 2675 428 
Q 3081 428 3442 575 
Q 3803 722 4122 1019 
L 4122 359 
Q 3791 134 3420 21 
Q 3050 -91 2638 -91 
Q 1578 -91 968 557 
Q 359 1206 359 2328 
Q 359 3453 968 4101 
Q 1578 4750 2638 4750 
Q 3056 4750 3426 4639 
Q 3797 4528 4122 4306 
z
" transform="scale(0.015625)"/>
       <path id="DejaVuSans-7a" d="M 353 3500 
L 3084 3500 
L 3084 2975 
L 922 459 
L 3084 459 
L 3084 0 
L 275 0 
L 275 525 
L 2438 3041 
L 353 3041 
L 353 3500 
z
" transform="scale(0.015625)"/>
      </defs>
      <use xlink:href="#DejaVuSans-54"/>
      <use xlink:href="#DejaVuSans-68" x="61.083984"/>
      <use xlink:href="#DejaVuSans-65" x="124.462891"/>
      <use xlink:href="#DejaVuSans-6d" x="185.986328"/>
      <use xlink:href="#DejaVuSans-65" x="283.398438"/>
      <use xlink:href="#DejaVuSans-20" x="344.921875"/>
      <use xlink:href="#DejaVuSans-43" x="376.708984"/>
      <use xlink:href="#DejaVuSans-75" x="446.533203"/>
      <use xlink:href="#DejaVuSans-73" x="509.912109"/>
      <use xlink:href="#DejaVuSans-74" x="562.011719"/>
      <use xlink:href="#DejaVuSans-6f" x="601.220703"/>
      <use xlink:href="#DejaVuSans-6d" x="662.402344"/>
      <use xlink:href="#DejaVuSans-69" x="759.814453"/>
      <use xlink:href="#DejaVuSans-7a" x="787.597656"/>
      <use xlink:href="#DejaVuSans-65" x="840.087891"/>
      <use xlink:href="#DejaVuSans-72" x="901.611328"/>
     </g>
    </g>
   </g>
   <g id="text_6">
    <g clip-path="url(#pdf4489cca8)">
     <!-- Statistics Dashboard -->
     <g transform="translate(204.299244 453.59128) scale(0.1 -0.1)">
      <defs>
       <path id="DejaVuSans-53" d="M 3425 4513 
L 3425 3897 
Q 3066 4069 2747 4153 
Q 2428 4238 2131 4238 
Q 1616 4238 1336 4038 
Q 1056 3838 1056 3469 
Q 1056 3159 1242 3001 
Q 1428 2844 1947 2747 
L 2328 2669 
Q 3034 2534 3370 2195 
Q 3706 1856 3706 1288 
Q 3706 609 3251 259 
Q 2797 -91 1919 -91 
Q 1588 -91 1214 -16 
Q 841 59 441 206 
L 441 856 
Q 825 641 1194 531 
Q 1563 422 1919 422 
Q 2459 422 2753 634 
Q 3047 847 3047 1241 
Q 3047 1584 2836 1778 
Q 2625 1972 2144 2069 
L 1759 2144 
Q 1053 2284 737 2584 
Q 422 2884 422 3419 
Q 422 4038 858 4394 
Q 1294 4750 2059 4750 
Q 2388 4750 2728 4690 
Q 3069 4631 3425 4513 
z
" transform="scale(0.015625)"/>
       <path id="DejaVuSans-44" d="M 1259 4147 
L 1259 519 
L 2022 519 
Q 2988 519 3436 956 
Q 3884 1394 3884 2338 
Q 3884 3275 3436 3711 
Q 2988 4147 2022 4147 
L 1259 4147 
z
M 628 4666 
L 1925 4666 
Q 3281 4666 3915 4102 
Q 4550 3538 4550 2338 
Q 4550 1131 3912 565 
Q 3275 0 1925 0 
L 628 0 
L 628 4666 
z
" transform="scale(0.015625)"/>
       <path id="DejaVuSans-62" d="M 3116 1747 
Q 3116 2381 2855 2742 
Q 2594 3103 2138 3103 
Q 1681 3103 1420 2742 
Q 1159 2381 1159 1747 
Q 1159 1113 1420 752 
Q 1681 391 2138 391 
Q 2594 391 2855 752 
Q 3116 1113 3116 1747 
z
M 1159 2969 
Q 1341 3281 1617 3432 
Q 1894 3584 2278 3584 
Q 2916 3584 3314 3078 
Q 3713 2572 3713 1747 
Q 3713 922 3314 415 
Q 2916 -91 2278 -91 
Q 1894 -91 1617 61 
Q 1341 213 1159 525 
L 1159 0 
L 581 0 
L 581 4863 
L 1159 4863 
L 1159 2969 
z
" transform="scale(0.015625)"/>
      </defs>
      <use xlink:href="#DejaVuSans-53"/>
      <use xlink:href="#DejaVuSans-74" x="63.476562"/>
      <use xlink:href="#DejaVuSans-61" x="102.685547"/>
      <use xlink:href="#DejaVuSans-74" x="163.964844"/>
      <use xlink:href="#DejaVuSans-69" x="203.173828"/>
      <use xlink:href="#DejaVuSans-73" x="230.957031"/>
      <use xlink:href="#DejaVuSans-74" x="283.056641"/>
      <use xlink:href="#DejaVuSans-69" x="322.265625"/>
      <use xlink:href="#DejaVuSans-63" x="350.048828"/>
      <use xlink:href="#DejaVuSans-73" x="405.029297"/>
      <use xlink:href="#DejaVuSans-20" x="457.128906"/>
      <use xlink:href="#DejaVuSans-44" x="488.916016"/>
      <use xlink:href="#DejaVuSans-61" x="565.917969"/>
      <use xlink:href="#DejaVuSans-73" x="627.197266"/>
      <use xlink:href="#DejaVuSans-68" x="679.296875"/>
      <use xlink:href="#DejaVuSans-62" x="742.675781"/>
      <use xlink:href="#DejaVuSans-6f" x="806.152344"/>
      <use xlink:href="#DejaVuSans-61" x="867.333984"/>
      <use xlink:href="#DejaVuSans-72" x="928.613281"/>
      <use xlink:href="#DejaVuSans-64" x="967.976562"/>
     </g>
    </g>
   </g>
   <g id="text_7">
    <g clip-path="url(#pdf4489cca8)">
     <!-- Auth Controller -->
     <g transform="translate(565.779496 341.984364) scale(0.1 -0.1)">
      <use xlink:href="#DejaVuSans-41"/>
      <use xlink:href="#DejaVuSans-75" x="68.408203"/>
      <use xlink:href="#DejaVuSans-74" x="131.787109"/>
      <use xlink:href="#DejaVuSans-68" x="170.996094"/>
      <use xlink:href="#DejaVuSans-20" x="234.375"/>
      <use xlink:href="#DejaVuSans-43" x="266.162109"/>
      <use xlink:href="#DejaVuSans-6f" x="335.986328"/>
      <use xlink:href="#DejaVuSans-6e" x="397.167969"/>
      <use xlink:href="#DejaVuSans-74" x="460.546875"/>
      <use xlink:href="#DejaVuSans-72" x="499.755859"/>
      <use xlink:href="#DejaVuSans-6f" x="538.619141"/>
      <use xlink:href="#DejaVuSans-6c" x="599.800781"/>
      <use xlink:href="#DejaVuSans-6c" x="627.583984"/>
      <use xlink:href="#DejaVuSans-65" x="655.367188"/>
      <use xlink:href="#DejaVuSans-72" x="716.890625"/>
     </g>
    </g>
   </g>
   <g id="text_8">
    <g clip-path="url(#pdf4489cca8)">
     <!-- Pomodoro Controller -->
     <g transform="translate(113.934437 652.39508) scale(0.1 -0.1)">
      <use xlink:href="#DejaVuSans-50"/>
      <use xlink:href="#DejaVuSans-6f" x="56.677734"/>
      <use xlink:href="#DejaVuSans-6d" x="117.859375"/>
      <use xlink:href="#DejaVuSans-6f" x="215.271484"/>
      <use xlink:href="#DejaVuSans-64" x="276.453125"/>
      <use xlink:href="#DejaVuSans-6f" x="339.929688"/>
      <use xlink:href="#DejaVuSans-72" x="401.111328"/>
      <use xlink:href="#DejaVuSans-6f" x="439.974609"/>
      <use xlink:href="#DejaVuSans-20" x="501.15625"/>
      <use xlink:href="#DejaVuSans-43" x="532.943359"/>
      <use xlink:href="#DejaVuSans-6f" x="602.767578"/>
      <use xlink:href="#DejaVuSans-6e" x="663.949219"/>
      <use xlink:href="#DejaVuSans-74" x="727.328125"/>
      <use xlink:href="#DejaVuSans-72" x="766.537109"/>
      <use xlink:href="#DejaVuSans-6f" x="805.400391"/>
      <use xlink:href="#DejaVuSans-6c" x="866.582031"/>
      <use xlink:href="#DejaVuSans-6c" x="894.365234"/>
      <use xlink:href="#DejaVuSans-65" x="922.148438"/>
      <use xlink:href="#DejaVuSans-72" x="983.671875"/>
     </g>
    </g>
   </g>
   <g id="text_9">
    <g clip-path="url(#pdf4489cca8)">
     <!-- Todo Controller -->
     <g transform="translate(770.380613 770.887549) scale(0.1 -0.1)">
      <use xlink:href="#DejaVuSans-54"/>
      <use xlink:href="#DejaVuSans-6f" x="44.083984"/>
      <use xlink:href="#DejaVuSans-64" x="105.265625"/>
      <use xlink:href="#DejaVuSans-6f" x="168.742188"/>
      <use xlink:href="#DejaVuSans-20" x="229.923828"/>
      <use xlink:href="#DejaVuSans-43" x="261.710938"/>
      <use xlink:href="#DejaVuSans-6f" x="331.535156"/>
      <use xlink:href="#DejaVuSans-6e" x="392.716797"/>
      <use xlink:href="#DejaVuSans-74" x="456.095703"/>
      <use xlink:href="#DejaVuSans-72" x="495.304688"/>
      <use xlink:href="#DejaVuSans-6f" x="534.167969"/>
      <use xlink:href="#DejaVuSans-6c" x="595.349609"/>
      <use xlink:href="#DejaVuSans-6c" x="623.132812"/>
      <use xlink:href="#DejaVuSans-65" x="650.916016"/>
      <use xlink:href="#DejaVuSans-72" x="712.439453"/>
     </g>
    </g>
   </g>
   <g id="text_10">
    <g clip-path="url(#pdf4489cca8)">
     <!-- Playlist Controller -->
     <g transform="translate(1252.60844 675.935946) scale(0.1 -0.1)">
      <use xlink:href="#DejaVuSans-50"/>
      <use xlink:href="#DejaVuSans-6c" x="60.302734"/>
      <use xlink:href="#DejaVuSans-61" x="88.085938"/>
      <use xlink:href="#DejaVuSans-79" x="149.365234"/>
      <use xlink:href="#DejaVuSans-6c" x="208.544922"/>
      <use xlink:href="#DejaVuSans-69" x="236.328125"/>
      <use xlink:href="#DejaVuSans-73" x="264.111328"/>
      <use xlink:href="#DejaVuSans-74" x="316.210938"/>
      <use xlink:href="#DejaVuSans-20" x="355.419922"/>
      <use xlink:href="#DejaVuSans-43" x="387.207031"/>
      <use xlink:href="#DejaVuSans-6f" x="457.03125"/>
      <use xlink:href="#DejaVuSans-6e" x="518.212891"/>
      <use xlink:href="#DejaVuSans-74" x="581.591797"/>
      <use xlink:href="#DejaVuSans-72" x="620.800781"/>
      <use xlink:href="#DejaVuSans-6f" x="659.664062"/>
      <use xlink:href="#DejaVuSans-6c" x="720.845703"/>
      <use xlink:href="#DejaVuSans-6c" x="748.628906"/>
      <use xlink:href="#DejaVuSans-65" x="776.412109"/>
      <use xlink:href="#DejaVuSans-72" x="837.935547"/>
     </g>
    </g>
   </g>
   <g id="text_11">
    <g clip-path="url(#pdf4489cca8)">
     <!-- Theme Controller -->
     <g transform="translate(1234.393153 488.674238) scale(0.1 -0.1)">
      <use xlink:href="#DejaVuSans-54"/>
      <use xlink:href="#DejaVuSans-68" x="61.083984"/>
      <use xlink:href="#DejaVuSans-65" x="124.462891"/>
      <use xlink:href="#DejaVuSans-6d" x="185.986328"/>
      <use xlink:href="#DejaVuSans-65" x="283.398438"/>
      <use xlink:href="#DejaVuSans-20" x="344.921875"/>
      <use xlink:href="#DejaVuSans-43" x="376.708984"/>
      <use xlink:href="#DejaVuSans-6f" x="446.533203"/>
      <use xlink:href="#DejaVuSans-6e" x="507.714844"/>
      <use xlink:href="#DejaVuSans-74" x="571.09375"/>
      <use xlink:href="#DejaVuSans-72" x="610.302734"/>
      <use xlink:href="#DejaVuSans-6f" x="649.166016"/>
      <use xlink:href="#DejaVuSans-6c" x="710.347656"/>
      <use xlink:href="#DejaVuSans-6c" x="738.130859"/>
      <use xlink:href="#DejaVuSans-65" x="765.914062"/>
      <use xlink:href="#DejaVuSans-72" x="827.4375"/>
     </g>
    </g>
   </g>
   <g id="text_12">
    <g clip-path="url(#pdf4489cca8)">
     <!-- DB Connection Pool -->
     <g transform="translate(948.651745 572.199837) scale(0.1 -0.1)">
      <defs>
       <path id="DejaVuSans-42" d="M 1259 2228 
L 1259 519 
L 2272 519 
Q 2781 519 3026 730 
Q 3272 941 3272 1375 
Q 3272 1813 3026 2020 
Q 2781 2228 2272 2228 
L 1259 2228 
z
M 1259 4147 
L 1259 2741 
L 2194 2741 
Q 2656 2741 2882 2914 
Q 3109 3088 3109 3444 
Q 3109 3797 2882 3972 
Q 2656 4147 2194 4147 
L 1259 4147 
z
M 628 4666 
L 2241 4666 
Q 2963 4666 3353 4366 
Q 3744 4066 3744 3513 
Q 3744 3084 3544 2831 
Q 3344 2578 2956 2516 
Q 3422 2416 3680 2098 
Q 3938 1781 3938 1306 
Q 3938 681 3513 340 
Q 3088 0 2303 0 
L 628 0 
L 628 4666 
z
" transform="scale(0.015625)"/>
      </defs>
      <use xlink:href="#DejaVuSans-44"/>
      <use xlink:href="#DejaVuSans-42" x="77.001953"/>
      <use xlink:href="#DejaVuSans-20" x="145.605469"/>
      <use xlink:href="#DejaVuSans-43" x="177.392578"/>
      <use xlink:href="#DejaVuSans-6f" x="247.216797"/>
      <use xlink:href="#DejaVuSans-6e" x="308.398438"/>
      <use xlink:href="#DejaVuSans-6e" x="371.777344"/>
      <use xlink:href="#DejaVuSans-65" x="435.15625"/>
      <use xlink:href="#DejaVuSans-63" x="496.679688"/>
      <use xlink:href="#DejaVuSans-74" x="551.660156"/>
      <use xlink:href="#DejaVuSans-69" x="590.869141"/>
      <use xlink:href="#DejaVuSans-6f" x="618.652344"/>
      <use xlink:href="#DejaVuSans-6e" x="679.833984"/>
      <use xlink:href="#DejaVuSans-20" x="743.212891"/>
      <use xlink:href="#DejaVuSans-50" x="775"/>
      <use xlink:href="#DejaVuSans-6f" x="831.677734"/>
      <use xlink:href="#DejaVuSans-6f" x="892.859375"/>
      <use xlink:href="#DejaVuSans-6c" x="954.041016"/>
     </g>
    </g>
   </g>
   <g id="text_13">
    <g clip-path="url(#pdf4489cca8)">
     <!-- Users -->
     <g transform="translate(1036.398779 97.11042) scale(0.1 -0.1)">
      <defs>
       <path id="DejaVuSans-55" d="M 556 4666 
L 1191 4666 
L 1191 1831 
Q 1191 1081 1462 751 
Q 1734 422 2344 422 
Q 2950 422 3222 751 
Q 3494 1081 3494 1831 
L 3494 4666 
L 4128 4666 
L 4128 1753 
Q 4128 841 3676 375 
Q 3225 -91 2344 -91 
Q 1459 -91 1007 375 
Q 556 841 556 1753 
L 556 4666 
z
" transform="scale(0.015625)"/>
      </defs>
      <use xlink:href="#DejaVuSans-55"/>
      <use xlink:href="#DejaVuSans-73" x="73.193359"/>
      <use xlink:href="#DejaVuSans-65" x="125.292969"/>
      <use xlink:href="#DejaVuSans-72" x="186.816406"/>
      <use xlink:href="#DejaVuSans-73" x="227.929688"/>
     </g>
    </g>
   </g>
   <g id="text_14">
    <g clip-path="url(#pdf4489cca8)">
     <!-- Pomodoro Sessions -->
     <g transform="translate(96.735317 458.403585) scale(0.1 -0.1)">
      <use xlink:href="#DejaVuSans-50"/>
      <use xlink:href="#DejaVuSans-6f" x="56.677734"/>
      <use xlink:href="#DejaVuSans-6d" x="117.859375"/>
      <use xlink:href="#DejaVuSans-6f" x="215.271484"/>
      <use xlink:href="#DejaVuSans-64" x="276.453125"/>
      <use xlink:href="#DejaVuSans-6f" x="339.929688"/>
      <use xlink:href="#DejaVuSans-72" x="401.111328"/>
      <use xlink:href="#DejaVuSans-6f" x="439.974609"/>
      <use xlink:href="#DejaVuSans-20" x="501.15625"/>
      <use xlink:href="#DejaVuSans-53" x="532.943359"/>
      <use xlink:href="#DejaVuSans-65" x="596.419922"/>
      <use xlink:href="#DejaVuSans-73" x="657.943359"/>
      <use xlink:href="#DejaVuSans-73" x="710.042969"/>
      <use xlink:href="#DejaVuSans-69" x="762.142578"/>
      <use xlink:href="#DejaVuSans-6f" x="789.925781"/>
      <use xlink:href="#DejaVuSans-6e" x="851.107422"/>
      <use xlink:href="#DejaVuSans-73" x="914.486328"/>
     </g>
    </g>
   </g>
   <g id="text_15">
    <g clip-path="url(#pdf4489cca8)">
     <!-- Todos -->
     <g transform="translate(1036.115161 920.962268) scale(0.1 -0.1)">
      <use xlink:href="#DejaVuSans-54"/>
      <use xlink:href="#DejaVuSans-6f" x="44.083984"/>
      <use xlink:href="#DejaVuSans-64" x="105.265625"/>
      <use xlink:href="#DejaVuSans-6f" x="168.742188"/>
      <use xlink:href="#DejaVuSans-73" x="229.923828"/>
     </g>
    </g>
   </g>
   <g id="text_16">
    <g clip-path="url(#pdf4489cca8)">
     <!-- Playlists -->
     <g transform="translate(1378.456441 639.315574) scale(0.1 -0.1)">
      <use xlink:href="#DejaVuSans-50"/>
      <use xlink:href="#DejaVuSans-6c" x="60.302734"/>
      <use xlink:href="#DejaVuSans-61" x="88.085938"/>
      <use xlink:href="#DejaVuSans-79" x="149.365234"/>
      <use xlink:href="#DejaVuSans-6c" x="208.544922"/>
      <use xlink:href="#DejaVuSans-69" x="236.328125"/>
      <use xlink:href="#DejaVuSans-73" x="264.111328"/>
      <use xlink:href="#DejaVuSans-74" x="316.210938"/>
      <use xlink:href="#DejaVuSans-73" x="355.419922"/>
     </g>
    </g>
   </g>
   <g id="text_17">
    <g clip-path="url(#pdf4489cca8)">
     <!-- Songs -->
     <g transform="translate(479.513068 65.979579) scale(0.1 -0.1)">
      <use xlink:href="#DejaVuSans-53"/>
      <use xlink:href="#DejaVuSans-6f" x="63.476562"/>
      <use xlink:href="#DejaVuSans-6e" x="124.658203"/>
      <use xlink:href="#DejaVuSans-67" x="188.037109"/>
      <use xlink:href="#DejaVuSans-73" x="251.513672"/>
     </g>
    </g>
   </g>
   <g id="text_18">
    <g clip-path="url(#pdf4489cca8)">
     <!-- Themes -->
     <g transform="translate(1397.828246 228.324065) scale(0.1 -0.1)">
      <use xlink:href="#DejaVuSans-54"/>
      <use xlink:href="#DejaVuSans-68" x="61.083984"/>
      <use xlink:href="#DejaVuSans-65" x="124.462891"/>
      <use xlink:href="#DejaVuSans-6d" x="185.986328"/>
      <use xlink:href="#DejaVuSans-65" x="283.398438"/>
      <use xlink:href="#DejaVuSans-73" x="344.921875"/>
     </g>
    </g>
   </g>
   <g id="text_19">
    <g clip-path="url(#pdf4489cca8)">
     <!-- OAuth Connections -->
     <g transform="translate(532.284781 922.816291) scale(0.1 -0.1)">
      <defs>
       <path id="DejaVuSans-4f" d="M 2522 4238 
Q 1834 4238 1429 3725 
Q 1025 3213 1025 2328 
Q 1025 1447 1429 934 
Q 1834 422 2522 422 
Q 3209 422 3611 934 
Q 4013 1447 4013 2328 
Q 4013 3213 3611 3725 
Q 3209 4238 2522 4238 
z
M 2522 4750 
Q 3503 4750 4090 4092 
Q 4678 3434 4678 2328 
Q 4678 1225 4090 567 
Q 3503 -91 2522 -91 
Q 1538 -91 948 565 
Q 359 1222 359 2328 
Q 359 3434 948 4092 
Q 1538 4750 2522 4750 
z
" transform="scale(0.015625)"/>
      </defs>
      <use xlink:href="#DejaVuSans-4f"/>
      <use xlink:href="#DejaVuSans-41" x="76.960938"/>
      <use xlink:href="#DejaVuSans-75" x="145.369141"/>
      <use xlink:href="#DejaVuSans-74" x="208.748047"/>
      <use xlink:href="#DejaVuSans-68" x="247.957031"/>
      <use xlink:href="#DejaVuSans-20" x="311.335938"/>
      <use xlink:href="#DejaVuSans-43" x="343.123047"/>
      <use xlink:href="#DejaVuSans-6f" x="412.947266"/>
      <use xlink:href="#DejaVuSans-6e" x="474.128906"/>
      <use xlink:href="#DejaVuSans-6e" x="537.507812"/>
      <use xlink:href="#DejaVuSans-65" x="600.886719"/>
      <use xlink:href="#DejaVuSans-63" x="662.410156"/>
      <use xlink:href="#DejaVuSans-74" x="717.390625"/>
      <use xlink:href="#DejaVuSans-69" x="756.599609"/>
      <use xlink:href="#DejaVuSans-6f" x="784.382812"/>
      <use xlink:href="#DejaVuSans-6e" x="845.564453"/>
      <use xlink:href="#DejaVuSans-73" x="908.943359"/>
     </g>
    </g>
   </g>
   <g id="text_20">
    <g clip-path="url(#pdf4489cca8)">
     <!-- YouTube API -->
     <g transform="translate(1416.709517 489.167742) scale(0.1 -0.1)">
      <defs>
       <path id="DejaVuSans-59" d="M -13 4666 
L 666 4666 
L 1959 2747 
L 3244 4666 
L 3922 4666 
L 2272 2222 
L 2272 0 
L 1638 0 
L 1638 2222 
L -13 4666 
z
" transform="scale(0.015625)"/>
       <path id="DejaVuSans-49" d="M 628 4666 
L 1259 4666 
L 1259 0 
L 628 0 
L 628 4666 
z
" transform="scale(0.015625)"/>
      </defs>
      <use xlink:href="#DejaVuSans-59"/>
      <use xlink:href="#DejaVuSans-6f" x="47.833984"/>
      <use xlink:href="#DejaVuSans-75" x="109.015625"/>
      <use xlink:href="#DejaVuSans-54" x="172.394531"/>
      <use xlink:href="#DejaVuSans-75" x="218.353516"/>
      <use xlink:href="#DejaVuSans-62" x="281.732422"/>
      <use xlink:href="#DejaVuSans-65" x="345.208984"/>
      <use xlink:href="#DejaVuSans-20" x="406.732422"/>
      <use xlink:href="#DejaVuSans-41" x="438.519531"/>
      <use xlink:href="#DejaVuSans-50" x="506.927734"/>
      <use xlink:href="#DejaVuSans-49" x="567.230469"/>
     </g>
    </g>
   </g>
   <g id="text_21">
    <g clip-path="url(#pdf4489cca8)">
     <!-- OAuth Providers -->
     <g transform="translate(97.110014 582.408137) scale(0.1 -0.1)">
      <defs>
       <path id="DejaVuSans-76" d="M 191 3500 
L 800 3500 
L 1894 563 
L 2988 3500 
L 3597 3500 
L 2284 0 
L 1503 0 
L 191 3500 
z
" transform="scale(0.015625)"/>
      </defs>
      <use xlink:href="#DejaVuSans-4f"/>
      <use xlink:href="#DejaVuSans-41" x="76.960938"/>
      <use xlink:href="#DejaVuSans-75" x="145.369141"/>
      <use xlink:href="#DejaVuSans-74" x="208.748047"/>
      <use xlink:href="#DejaVuSans-68" x="247.957031"/>
      <use xlink:href="#DejaVuSans-20" x="311.335938"/>
      <use xlink:href="#DejaVuSans-50" x="343.123047"/>
      <use xlink:href="#DejaVuSans-72" x="401.675781"/>
      <use xlink:href="#DejaVuSans-6f" x="440.539062"/>
      <use xlink:href="#DejaVuSans-76" x="501.720703"/>
      <use xlink:href="#DejaVuSans-69" x="560.900391"/>
      <use xlink:href="#DejaVuSans-64" x="588.683594"/>
      <use xlink:href="#DejaVuSans-65" x="652.160156"/>
      <use xlink:href="#DejaVuSans-72" x="713.683594"/>
      <use xlink:href="#DejaVuSans-73" x="754.796875"/>
     </g>
    </g>
   </g>
   <g id="text_22">
    <g clip-path="url(#pdf4489cca8)">
     <!-- SendGrid -->
     <g transform="translate(146.495273 257.377638) scale(0.1 -0.1)">
      <defs>
       <path id="DejaVuSans-47" d="M 3809 666 
L 3809 1919 
L 2778 1919 
L 2778 2438 
L 4434 2438 
L 4434 434 
Q 4069 175 3628 42 
Q 3188 -91 2688 -91 
Q 1594 -91 976 548 
Q 359 1188 359 2328 
Q 359 3472 976 4111 
Q 1594 4750 2688 4750 
Q 3144 4750 3555 4637 
Q 3966 4525 4313 4306 
L 4313 3634 
Q 3963 3931 3569 4081 
Q 3175 4231 2741 4231 
Q 1884 4231 1454 3753 
Q 1025 3275 1025 2328 
Q 1025 1384 1454 906 
Q 1884 428 2741 428 
Q 3075 428 3337 486 
Q 3600 544 3809 666 
z
" transform="scale(0.015625)"/>
      </defs>
      <use xlink:href="#DejaVuSans-53"/>
      <use xlink:href="#DejaVuSans-65" x="63.476562"/>
      <use xlink:href="#DejaVuSans-6e" x="125"/>
      <use xlink:href="#DejaVuSans-64" x="188.378906"/>
      <use xlink:href="#DejaVuSans-47" x="251.855469"/>
      <use xlink:href="#DejaVuSans-72" x="329.345703"/>
      <use xlink:href="#DejaVuSans-69" x="370.458984"/>
      <use xlink:href="#DejaVuSans-64" x="398.242188"/>
     </g>
    </g>
   </g>
   <g id="text_23">
    <g clip-path="url(#pdf4489cca8)">
     <!-- Render Hosting -->
     <g transform="translate(579.707629 90.230449) scale(0.1 -0.1)">
      <defs>
       <path id="DejaVuSans-52" d="M 2841 2188 
Q 3044 2119 3236 1894 
Q 3428 1669 3622 1275 
L 4263 0 
L 3584 0 
L 2988 1197 
Q 2756 1666 2539 1819 
Q 2322 1972 1947 1972 
L 1259 1972 
L 1259 0 
L 628 0 
L 628 4666 
L 2053 4666 
Q 2853 4666 3247 4331 
Q 3641 3997 3641 3322 
Q 3641 2881 3436 2590 
Q 3231 2300 2841 2188 
z
M 1259 4147 
L 1259 2491 
L 2053 2491 
Q 2509 2491 2742 2702 
Q 2975 2913 2975 3322 
Q 2975 3731 2742 3939 
Q 2509 4147 2053 4147 
L 1259 4147 
z
" transform="scale(0.015625)"/>
       <path id="DejaVuSans-48" d="M 628 4666 
L 1259 4666 
L 1259 2753 
L 3553 2753 
L 3553 4666 
L 4184 4666 
L 4184 0 
L 3553 0 
L 3553 2222 
L 1259 2222 
L 1259 0 
L 628 0 
L 628 4666 
z
" transform="scale(0.015625)"/>
      </defs>
      <use xlink:href="#DejaVuSans-52"/>
      <use xlink:href="#DejaVuSans-65" x="64.982422"/>
      <use xlink:href="#DejaVuSans-6e" x="126.505859"/>
      <use xlink:href="#DejaVuSans-64" x="189.884766"/>
      <use xlink:href="#DejaVuSans-65" x="253.361328"/>
      <use xlink:href="#DejaVuSans-72" x="314.884766"/>
      <use xlink:href="#DejaVuSans-20" x="355.998047"/>
      <use xlink:href="#DejaVuSans-48" x="387.785156"/>
      <use xlink:href="#DejaVuSans-6f" x="462.980469"/>
      <use xlink:href="#DejaVuSans-73" x="524.162109"/>
      <use xlink:href="#DejaVuSans-74" x="576.261719"/>
      <use xlink:href="#DejaVuSans-69" x="615.470703"/>
      <use xlink:href="#DejaVuSans-6e" x="643.253906"/>
      <use xlink:href="#DejaVuSans-67" x="706.632812"/>
     </g>
    </g>
   </g>
   <g id="text_24">
    <g clip-path="url(#pdf4489cca8)">
     <!-- PostgreSQL -->
     <g transform="translate(1088.439603 207.149964) scale(0.1 -0.1)">
      <defs>
       <path id="DejaVuSans-51" d="M 2522 4238 
Q 1834 4238 1429 3725 
Q 1025 3213 1025 2328 
Q 1025 1447 1429 934 
Q 1834 422 2522 422 
Q 3209 422 3611 934 
Q 4013 1447 4013 2328 
Q 4013 3213 3611 3725 
Q 3209 4238 2522 4238 
z
M 3406 84 
L 4238 -825 
L 3475 -825 
L 2784 -78 
Q 2681 -84 2626 -87 
Q 2572 -91 2522 -91 
Q 1538 -91 948 567 
Q 359 1225 359 2328 
Q 359 3434 948 4092 
Q 1538 4750 2522 4750 
Q 3503 4750 4090 4092 
Q 4678 3434 4678 2328 
Q 4678 1516 4351 937 
Q 4025 359 3406 84 
z
" transform="scale(0.015625)"/>
       <path id="DejaVuSans-4c" d="M 628 4666 
L 1259 4666 
L 1259 531 
L 3531 531 
L 3531 0 
L 628 0 
L 628 4666 
z
" transform="scale(0.015625)"/>
      </defs>
      <use xlink:href="#DejaVuSans-50"/>
      <use xlink:href="#DejaVuSans-6f" x="56.677734"/>
      <use xlink:href="#DejaVuSans-73" x="117.859375"/>
      <use xlink:href="#DejaVuSans-74" x="169.958984"/>
      <use xlink:href="#DejaVuSans-67" x="209.167969"/>
      <use xlink:href="#DejaVuSans-72" x="272.644531"/>
      <use xlink:href="#DejaVuSans-65" x="311.507812"/>
      <use xlink:href="#DejaVuSans-53" x="373.03125"/>
      <use xlink:href="#DejaVuSans-51" x="436.507812"/>
      <use xlink:href="#DejaVuSans-4c" x="515.21875"/>
     </g>
    </g>
   </g>
   <g id="text_25">
    <g clip-path="url(#pdf4489cca8)">
     <!-- CI/CD Pipeline -->
     <g transform="translate(780.227512 923.288301) scale(0.1 -0.1)">
      <defs>
       <path id="DejaVuSans-2f" d="M 1625 4666 
L 2156 4666 
L 531 -594 
L 0 -594 
L 1625 4666 
z
" transform="scale(0.015625)"/>
       <path id="DejaVuSans-70" d="M 1159 525 
L 1159 -1331 
L 581 -1331 
L 581 3500 
L 1159 3500 
L 1159 2969 
Q 1341 3281 1617 3432 
Q 1894 3584 2278 3584 
Q 2916 3584 3314 3078 
Q 3713 2572 3713 1747 
Q 3713 922 3314 415 
Q 2916 -91 2278 -91 
Q 1894 -91 1617 61 
Q 1341 213 1159 525 
z
M 3116 1747 
Q 3116 2381 2855 2742 
Q 2594 3103 2138 3103 
Q 1681 3103 1420 2742 
Q 1159 2381 1159 1747 
Q 1159 1113 1420 752 
Q 1681 391 2138 391 
Q 2594 391 2855 752 
Q 3116 1113 3116 1747 
z
" transform="scale(0.015625)"/>
      </defs>
      <use xlink:href="#DejaVuSans-43"/>
      <use xlink:href="#DejaVuSans-49" x="69.824219"/>
      <use xlink:href="#DejaVuSans-2f" x="99.316406"/>
      <use xlink:href="#DejaVuSans-43" x="133.007812"/>
      <use xlink:href="#DejaVuSans-44" x="202.832031"/>
      <use xlink:href="#DejaVuSans-20" x="279.833984"/>
      <use xlink:href="#DejaVuSans-50" x="311.621094"/>
      <use xlink:href="#DejaVuSans-69" x="369.673828"/>
      <use xlink:href="#DejaVuSans-70" x="397.457031"/>
      <use xlink:href="#DejaVuSans-65" x="460.933594"/>
      <use xlink:href="#DejaVuSans-6c" x="522.457031"/>
      <use xlink:href="#DejaVuSans-69" x="550.240234"/>
      <use xlink:href="#DejaVuSans-6e" x="578.023438"/>
      <use xlink:href="#DejaVuSans-65" x="641.402344"/>
     </g>
    </g>
   </g>
   <g id="text_26">
    <!-- Frontend -->
    <g style="fill: #00008b" transform="translate(-137.741522 -22.89638) scale(0.16 -0.16)">
     <defs>
      <path id="DejaVuSans-Bold-46" d="M 588 4666 
L 3834 4666 
L 3834 3756 
L 1791 3756 
L 1791 2888 
L 3713 2888 
L 3713 1978 
L 1791 1978 
L 1791 0 
L 588 0 
L 588 4666 
z
" transform="scale(0.015625)"/>
      <path id="DejaVuSans-Bold-72" d="M 3138 2547 
Q 2991 2616 2845 2648 
Q 2700 2681 2553 2681 
Q 2122 2681 1889 2404 
Q 1656 2128 1656 1613 
L 1656 0 
L 538 0 
L 538 3500 
L 1656 3500 
L 1656 2925 
Q 1872 3269 2151 3426 
Q 2431 3584 2822 3584 
Q 2878 3584 2943 3579 
Q 3009 3575 3134 3559 
L 3138 2547 
z
" transform="scale(0.015625)"/>
      <path id="DejaVuSans-Bold-6f" d="M 2203 2784 
Q 1831 2784 1636 2517 
Q 1441 2250 1441 1747 
Q 1441 1244 1636 976 
Q 1831 709 2203 709 
Q 2569 709 2762 976 
Q 2956 1244 2956 1747 
Q 2956 2250 2762 2517 
Q 2569 2784 2203 2784 
z
M 2203 3584 
Q 3106 3584 3614 3096 
Q 4122 2609 4122 1747 
Q 4122 884 3614 396 
Q 3106 -91 2203 -91 
Q 1297 -91 786 396 
Q 275 884 275 1747 
Q 275 2609 786 3096 
Q 1297 3584 2203 3584 
z
" transform="scale(0.015625)"/>
      <path id="DejaVuSans-Bold-6e" d="M 4056 2131 
L 4056 0 
L 2931 0 
L 2931 347 
L 2931 1631 
Q 2931 2084 2911 2256 
Q 2891 2428 2841 2509 
Q 2775 2619 2662 2680 
Q 2550 2741 2406 2741 
Q 2056 2741 1856 2470 
Q 1656 2200 1656 1722 
L 1656 0 
L 538 0 
L 538 3500 
L 1656 3500 
L 1656 2988 
Q 1909 3294 2193 3439 
Q 2478 3584 2822 3584 
Q 3428 3584 3742 3212 
Q 4056 2841 4056 2131 
z
" transform="scale(0.015625)"/>
      <path id="DejaVuSans-Bold-74" d="M 1759 4494 
L 1759 3500 
L 2913 3500 
L 2913 2700 
L 1759 2700 
L 1759 1216 
Q 1759 972 1856 886 
Q 1953 800 2241 800 
L 2816 800 
L 2816 0 
L 1856 0 
Q 1194 0 917 276 
Q 641 553 641 1216 
L 641 2700 
L 84 2700 
L 84 3500 
L 641 3500 
L 641 4494 
L 1759 4494 
z
" transform="scale(0.015625)"/>
      <path id="DejaVuSans-Bold-65" d="M 4031 1759 
L 4031 1441 
L 1416 1441 
Q 1456 1047 1700 850 
Q 1944 653 2381 653 
Q 2734 653 3104 758 
Q 3475 863 3866 1075 
L 3866 213 
Q 3469 63 3072 -14 
Q 2675 -91 2278 -91 
Q 1328 -91 801 392 
Q 275 875 275 1747 
Q 275 2603 792 3093 
Q 1309 3584 2216 3584 
Q 3041 3584 3536 3087 
Q 4031 2591 4031 1759 
z
M 2881 2131 
Q 2881 2450 2695 2645 
Q 2509 2841 2209 2841 
Q 1884 2841 1681 2658 
Q 1478 2475 1428 2131 
L 2881 2131 
z
" transform="scale(0.015625)"/>
      <path id="DejaVuSans-Bold-64" d="M 2919 2988 
L 2919 4863 
L 4044 4863 
L 4044 0 
L 2919 0 
L 2919 506 
Q 2688 197 2409 53 
Q 2131 -91 1766 -91 
Q 1119 -91 703 423 
Q 288 938 288 1747 
Q 288 2556 703 3070 
Q 1119 3584 1766 3584 
Q 2128 3584 2408 3439 
Q 2688 3294 2919 2988 
z
M 2181 722 
Q 2541 722 2730 984 
Q 2919 1247 2919 1747 
Q 2919 2247 2730 2509 
Q 2541 2772 2181 2772 
Q 1825 2772 1636 2509 
Q 1447 2247 1447 1747 
Q 1447 1247 1636 984 
Q 1825 722 2181 722 
z
" transform="scale(0.015625)"/>
     </defs>
     <use xlink:href="#DejaVuSans-Bold-46"/>
     <use xlink:href="#DejaVuSans-Bold-72" x="61.935547"/>
     <use xlink:href="#DejaVuSans-Bold-6f" x="111.251953"/>
     <use xlink:href="#DejaVuSans-Bold-6e" x="179.953125"/>
     <use xlink:href="#DejaVuSans-Bold-74" x="251.144531"/>
     <use xlink:href="#DejaVuSans-Bold-65" x="298.947266"/>
     <use xlink:href="#DejaVuSans-Bold-6e" x="366.769531"/>
     <use xlink:href="#DejaVuSans-Bold-64" x="437.960938"/>
    </g>
   </g>
   <g id="text_27">
    <!-- Backend -->
    <g style="fill: #006400" transform="translate(1191.696807 -22.89638) scale(0.16 -0.16)">
     <defs>
      <path id="DejaVuSans-Bold-42" d="M 2456 2859 
Q 2741 2859 2887 2984 
Q 3034 3109 3034 3353 
Q 3034 3594 2887 3720 
Q 2741 3847 2456 3847 
L 1791 3847 
L 1791 2859 
L 2456 2859 
z
M 2497 819 
Q 2859 819 3042 972 
Q 3225 1125 3225 1434 
Q 3225 1738 3044 1889 
Q 2863 2041 2497 2041 
L 1791 2041 
L 1791 819 
L 2497 819 
z
M 3616 2497 
Q 4003 2384 4215 2081 
Q 4428 1778 4428 1338 
Q 4428 663 3972 331 
Q 3516 0 2584 0 
L 588 0 
L 588 4666 
L 2394 4666 
Q 3366 4666 3802 4372 
Q 4238 4078 4238 3431 
Q 4238 3091 4078 2852 
Q 3919 2613 3616 2497 
z
" transform="scale(0.015625)"/>
      <path id="DejaVuSans-Bold-61" d="M 2106 1575 
Q 1756 1575 1579 1456 
Q 1403 1338 1403 1106 
Q 1403 894 1545 773 
Q 1688 653 1941 653 
Q 2256 653 2472 879 
Q 2688 1106 2688 1447 
L 2688 1575 
L 2106 1575 
z
M 3816 1997 
L 3816 0 
L 2688 0 
L 2688 519 
Q 2463 200 2181 54 
Q 1900 -91 1497 -91 
Q 953 -91 614 226 
Q 275 544 275 1050 
Q 275 1666 698 1953 
Q 1122 2241 2028 2241 
L 2688 2241 
L 2688 2328 
Q 2688 2594 2478 2717 
Q 2269 2841 1825 2841 
Q 1466 2841 1156 2769 
Q 847 2697 581 2553 
L 581 3406 
Q 941 3494 1303 3539 
Q 1666 3584 2028 3584 
Q 2975 3584 3395 3211 
Q 3816 2838 3816 1997 
z
" transform="scale(0.015625)"/>
      <path id="DejaVuSans-Bold-63" d="M 3366 3391 
L 3366 2478 
Q 3138 2634 2908 2709 
Q 2678 2784 2431 2784 
Q 1963 2784 1702 2511 
Q 1441 2238 1441 1747 
Q 1441 1256 1702 982 
Q 1963 709 2431 709 
Q 2694 709 2930 787 
Q 3166 866 3366 1019 
L 3366 103 
Q 3103 6 2833 -42 
Q 2563 -91 2291 -91 
Q 1344 -91 809 395 
Q 275 881 275 1747 
Q 275 2613 809 3098 
Q 1344 3584 2291 3584 
Q 2566 3584 2833 3536 
Q 3100 3488 3366 3391 
z
" transform="scale(0.015625)"/>
      <path id="DejaVuSans-Bold-6b" d="M 538 4863 
L 1656 4863 
L 1656 2216 
L 2944 3500 
L 4244 3500 
L 2534 1894 
L 4378 0 
L 3022 0 
L 1656 1459 
L 1656 0 
L 538 0 
L 538 4863 
z
" transform="scale(0.015625)"/>
     </defs>
     <use xlink:href="#DejaVuSans-Bold-42"/>
     <use xlink:href="#DejaVuSans-Bold-61" x="76.220703"/>
     <use xlink:href="#DejaVuSans-Bold-63" x="143.701172"/>
     <use xlink:href="#DejaVuSans-Bold-6b" x="202.978516"/>
     <use xlink:href="#DejaVuSans-Bold-65" x="266.857422"/>
     <use xlink:href="#DejaVuSans-Bold-6e" x="334.679688"/>
     <use xlink:href="#DejaVuSans-Bold-64" x="405.871094"/>
    </g>
   </g>
   <g id="text_28">
    <!-- Database -->
    <g style="fill: #8b0000" transform="translate(1989.359805 192.395081) scale(0.16 -0.16)">
     <defs>
      <path id="DejaVuSans-Bold-44" d="M 1791 3756 
L 1791 909 
L 2222 909 
Q 2959 909 3348 1275 
Q 3738 1641 3738 2338 
Q 3738 3031 3350 3393 
Q 2963 3756 2222 3756 
L 1791 3756 
z
M 588 4666 
L 1856 4666 
Q 2919 4666 3439 4514 
Q 3959 4363 4331 4000 
Q 4659 3684 4818 3271 
Q 4978 2859 4978 2338 
Q 4978 1809 4818 1395 
Q 4659 981 4331 666 
Q 3956 303 3431 151 
Q 2906 0 1856 0 
L 588 0 
L 588 4666 
z
" transform="scale(0.015625)"/>
      <path id="DejaVuSans-Bold-62" d="M 2400 722 
Q 2759 722 2948 984 
Q 3138 1247 3138 1747 
Q 3138 2247 2948 2509 
Q 2759 2772 2400 2772 
Q 2041 2772 1848 2508 
Q 1656 2244 1656 1747 
Q 1656 1250 1848 986 
Q 2041 722 2400 722 
z
M 1656 2988 
Q 1888 3294 2169 3439 
Q 2450 3584 2816 3584 
Q 3463 3584 3878 3070 
Q 4294 2556 4294 1747 
Q 4294 938 3878 423 
Q 3463 -91 2816 -91 
Q 2450 -91 2169 54 
Q 1888 200 1656 506 
L 1656 0 
L 538 0 
L 538 4863 
L 1656 4863 
L 1656 2988 
z
" transform="scale(0.015625)"/>
      <path id="DejaVuSans-Bold-73" d="M 3272 3391 
L 3272 2541 
Q 2913 2691 2578 2766 
Q 2244 2841 1947 2841 
Q 1628 2841 1473 2761 
Q 1319 2681 1319 2516 
Q 1319 2381 1436 2309 
Q 1553 2238 1856 2203 
L 2053 2175 
Q 2913 2066 3209 1816 
Q 3506 1566 3506 1031 
Q 3506 472 3093 190 
Q 2681 -91 1863 -91 
Q 1516 -91 1145 -36 
Q 775 19 384 128 
L 384 978 
Q 719 816 1070 734 
Q 1422 653 1784 653 
Q 2113 653 2278 743 
Q 2444 834 2444 1013 
Q 2444 1163 2330 1236 
Q 2216 1309 1875 1350 
L 1678 1375 
Q 931 1469 631 1722 
Q 331 1975 331 2491 
Q 331 3047 712 3315 
Q 1094 3584 1881 3584 
Q 2191 3584 2531 3537 
Q 2872 3491 3272 3391 
z
" transform="scale(0.015625)"/>
     </defs>
     <use xlink:href="#DejaVuSans-Bold-44"/>
     <use xlink:href="#DejaVuSans-Bold-61" x="83.007812"/>
     <use xlink:href="#DejaVuSans-Bold-74" x="150.488281"/>
     <use xlink:href="#DejaVuSans-Bold-61" x="198.291016"/>
     <use xlink:href="#DejaVuSans-Bold-62" x="265.771484"/>
     <use xlink:href="#DejaVuSans-Bold-61" x="337.353516"/>
     <use xlink:href="#DejaVuSans-Bold-73" x="404.833984"/>
     <use xlink:href="#DejaVuSans-Bold-65" x="464.355469"/>
    </g>
   </g>
   <g id="text_29">
    <!-- Integrations -->
    <g style="fill: #ffa500" transform="translate(-337.157272 752.152879) scale(0.16 -0.16)">
     <defs>
      <path id="DejaVuSans-Bold-49" d="M 588 4666 
L 1791 4666 
L 1791 0 
L 588 0 
L 588 4666 
z
" transform="scale(0.015625)"/>
      <path id="DejaVuSans-Bold-67" d="M 2919 594 
Q 2688 288 2409 144 
Q 2131 0 1766 0 
Q 1125 0 706 504 
Q 288 1009 288 1791 
Q 288 2575 706 3076 
Q 1125 3578 1766 3578 
Q 2131 3578 2409 3434 
Q 2688 3291 2919 2981 
L 2919 3500 
L 4044 3500 
L 4044 353 
Q 4044 -491 3511 -936 
Q 2978 -1381 1966 -1381 
Q 1638 -1381 1331 -1331 
Q 1025 -1281 716 -1178 
L 716 -306 
Q 1009 -475 1290 -558 
Q 1572 -641 1856 -641 
Q 2406 -641 2662 -400 
Q 2919 -159 2919 353 
L 2919 594 
z
M 2181 2772 
Q 1834 2772 1640 2515 
Q 1447 2259 1447 1791 
Q 1447 1309 1634 1061 
Q 1822 813 2181 813 
Q 2531 813 2725 1069 
Q 2919 1325 2919 1791 
Q 2919 2259 2725 2515 
Q 2531 2772 2181 2772 
z
" transform="scale(0.015625)"/>
      <path id="DejaVuSans-Bold-69" d="M 538 3500 
L 1656 3500 
L 1656 0 
L 538 0 
L 538 3500 
z
M 538 4863 
L 1656 4863 
L 1656 3950 
L 538 3950 
L 538 4863 
z
" transform="scale(0.015625)"/>
     </defs>
     <use xlink:href="#DejaVuSans-Bold-49"/>
     <use xlink:href="#DejaVuSans-Bold-6e" x="37.207031"/>
     <use xlink:href="#DejaVuSans-Bold-74" x="108.398438"/>
     <use xlink:href="#DejaVuSans-Bold-65" x="156.201172"/>
     <use xlink:href="#DejaVuSans-Bold-67" x="224.023438"/>
     <use xlink:href="#DejaVuSans-Bold-72" x="295.605469"/>
     <use xlink:href="#DejaVuSans-Bold-61" x="344.921875"/>
     <use xlink:href="#DejaVuSans-Bold-74" x="412.402344"/>
     <use xlink:href="#DejaVuSans-Bold-69" x="460.205078"/>
     <use xlink:href="#DejaVuSans-Bold-6f" x="494.482422"/>
     <use xlink:href="#DejaVuSans-Bold-6e" x="563.183594"/>
     <use xlink:href="#DejaVuSans-Bold-73" x="634.375"/>
    </g>
   </g>
   <g id="text_30">
    <!-- Deployment -->
    <g style="fill: #800080" transform="translate(1989.359805 1010.502632) scale(0.16 -0.16)">
     <defs>
      <path id="DejaVuSans-Bold-70" d="M 1656 506 
L 1656 -1331 
L 538 -1331 
L 538 3500 
L 1656 3500 
L 1656 2988 
Q 1888 3294 2169 3439 
Q 2450 3584 2816 3584 
Q 3463 3584 3878 3070 
Q 4294 2556 4294 1747 
Q 4294 938 3878 423 
Q 3463 -91 2816 -91 
Q 2450 -91 2169 54 
Q 1888 200 1656 506 
z
M 2400 2772 
Q 2041 2772 1848 2508 
Q 1656 2244 1656 1747 
Q 1656 1250 1848 986 
Q 2041 722 2400 722 
Q 2759 722 2948 984 
Q 3138 1247 3138 1747 
Q 3138 2247 2948 2509 
Q 2759 2772 2400 2772 
z
" transform="scale(0.015625)"/>
      <path id="DejaVuSans-Bold-6c" d="M 538 4863 
L 1656 4863 
L 1656 0 
L 538 0 
L 538 4863 
z
" transform="scale(0.015625)"/>
      <path id="DejaVuSans-Bold-79" d="M 78 3500 
L 1197 3500 
L 2138 1125 
L 2938 3500 
L 4056 3500 
L 2584 -331 
Q 2363 -916 2067 -1148 
Q 1772 -1381 1288 -1381 
L 641 -1381 
L 641 -647 
L 991 -647 
Q 1275 -647 1404 -556 
Q 1534 -466 1606 -231 
L 1638 -134 
L 78 3500 
z
" transform="scale(0.015625)"/>
      <path id="DejaVuSans-Bold-6d" d="M 3781 2919 
Q 3994 3244 4286 3414 
Q 4578 3584 4928 3584 
Q 5531 3584 5847 3212 
Q 6163 2841 6163 2131 
L 6163 0 
L 5038 0 
L 5038 1825 
Q 5041 1866 5042 1909 
Q 5044 1953 5044 2034 
Q 5044 2406 4934 2573 
Q 4825 2741 4581 2741 
Q 4263 2741 4089 2478 
Q 3916 2216 3909 1719 
L 3909 0 
L 2784 0 
L 2784 1825 
Q 2784 2406 2684 2573 
Q 2584 2741 2328 2741 
Q 2006 2741 1831 2477 
Q 1656 2213 1656 1722 
L 1656 0 
L 531 0 
L 531 3500 
L 1656 3500 
L 1656 2988 
Q 1863 3284 2130 3434 
Q 2397 3584 2719 3584 
Q 3081 3584 3359 3409 
Q 3638 3234 3781 2919 
z
" transform="scale(0.015625)"/>
     </defs>
     <use xlink:href="#DejaVuSans-Bold-44"/>
     <use xlink:href="#DejaVuSans-Bold-65" x="83.007812"/>
     <use xlink:href="#DejaVuSans-Bold-70" x="150.830078"/>
     <use xlink:href="#DejaVuSans-Bold-6c" x="222.412109"/>
     <use xlink:href="#DejaVuSans-Bold-6f" x="256.689453"/>
     <use xlink:href="#DejaVuSans-Bold-79" x="325.390625"/>
     <use xlink:href="#DejaVuSans-Bold-6d" x="390.576172"/>
     <use xlink:href="#DejaVuSans-Bold-65" x="494.775391"/>
     <use xlink:href="#DejaVuSans-Bold-6e" x="562.597656"/>
     <use xlink:href="#DejaVuSans-Bold-74" x="633.789062"/>
    </g>
   </g>
   <g id="text_31">
    <!-- VibeFlo System Architecture - Color-Coded &amp; Annotated -->
    <g style="fill: #333333" transform="translate(507.855938 -6) scale(0.18 -0.18)">
     <defs>
      <path id="DejaVuSans-Bold-56" d="M 31 4666 
L 1241 4666 
L 2478 1222 
L 3713 4666 
L 4922 4666 
L 3194 0 
L 1759 0 
L 31 4666 
z
" transform="scale(0.015625)"/>
      <path id="DejaVuSans-Bold-20" transform="scale(0.015625)"/>
      <path id="DejaVuSans-Bold-53" d="M 3834 4519 
L 3834 3531 
Q 3450 3703 3084 3790 
Q 2719 3878 2394 3878 
Q 1963 3878 1756 3759 
Q 1550 3641 1550 3391 
Q 1550 3203 1689 3098 
Q 1828 2994 2194 2919 
L 2706 2816 
Q 3484 2659 3812 2340 
Q 4141 2022 4141 1434 
Q 4141 663 3683 286 
Q 3225 -91 2284 -91 
Q 1841 -91 1394 -6 
Q 947 78 500 244 
L 500 1259 
Q 947 1022 1364 901 
Q 1781 781 2169 781 
Q 2563 781 2772 912 
Q 2981 1044 2981 1288 
Q 2981 1506 2839 1625 
Q 2697 1744 2272 1838 
L 1806 1941 
Q 1106 2091 782 2419 
Q 459 2747 459 3303 
Q 459 4000 909 4375 
Q 1359 4750 2203 4750 
Q 2588 4750 2994 4692 
Q 3400 4634 3834 4519 
z
" transform="scale(0.015625)"/>
      <path id="DejaVuSans-Bold-41" d="M 3419 850 
L 1538 850 
L 1241 0 
L 31 0 
L 1759 4666 
L 3194 4666 
L 4922 0 
L 3713 0 
L 3419 850 
z
M 1838 1716 
L 3116 1716 
L 2478 3572 
L 1838 1716 
z
" transform="scale(0.015625)"/>
      <path id="DejaVuSans-Bold-68" d="M 4056 2131 
L 4056 0 
L 2931 0 
L 2931 347 
L 2931 1625 
Q 2931 2084 2911 2256 
Q 2891 2428 2841 2509 
Q 2775 2619 2662 2680 
Q 2550 2741 2406 2741 
Q 2056 2741 1856 2470 
Q 1656 2200 1656 1722 
L 1656 0 
L 538 0 
L 538 4863 
L 1656 4863 
L 1656 2988 
Q 1909 3294 2193 3439 
Q 2478 3584 2822 3584 
Q 3428 3584 3742 3212 
Q 4056 2841 4056 2131 
z
" transform="scale(0.015625)"/>
      <path id="DejaVuSans-Bold-75" d="M 500 1363 
L 500 3500 
L 1625 3500 
L 1625 3150 
Q 1625 2866 1622 2436 
Q 1619 2006 1619 1863 
Q 1619 1441 1641 1255 
Q 1663 1069 1716 984 
Q 1784 875 1895 815 
Q 2006 756 2150 756 
Q 2500 756 2700 1025 
Q 2900 1294 2900 1772 
L 2900 3500 
L 4019 3500 
L 4019 0 
L 2900 0 
L 2900 506 
Q 2647 200 2364 54 
Q 2081 -91 1741 -91 
Q 1134 -91 817 281 
Q 500 653 500 1363 
z
" transform="scale(0.015625)"/>
      <path id="DejaVuSans-Bold-2d" d="M 347 2297 
L 2309 2297 
L 2309 1388 
L 347 1388 
L 347 2297 
z
" transform="scale(0.015625)"/>
      <path id="DejaVuSans-Bold-43" d="M 4288 256 
Q 3956 84 3597 -3 
Q 3238 -91 2847 -91 
Q 1681 -91 1000 561 
Q 319 1213 319 2328 
Q 319 3447 1000 4098 
Q 1681 4750 2847 4750 
Q 3238 4750 3597 4662 
Q 3956 4575 4288 4403 
L 4288 3438 
Q 3953 3666 3628 3772 
Q 3303 3878 2944 3878 
Q 2300 3878 1931 3465 
Q 1563 3053 1563 2328 
Q 1563 1606 1931 1193 
Q 2300 781 2944 781 
Q 3303 781 3628 887 
Q 3953 994 4288 1222 
L 4288 256 
z
" transform="scale(0.015625)"/>
      <path id="DejaVuSans-Bold-26" d="M 2497 3097 
L 3775 1691 
Q 3941 1909 4027 2181 
Q 4113 2453 4128 2797 
L 5100 2797 
Q 5053 2228 4879 1784 
Q 4706 1341 4397 1006 
L 5313 0 
L 3988 0 
L 3681 341 
Q 3353 122 2990 15 
Q 2628 -91 2222 -91 
Q 1400 -91 892 342 
Q 384 775 384 1459 
Q 384 1916 607 2267 
Q 831 2619 1338 2950 
Q 1206 3116 1143 3281 
Q 1081 3447 1081 3628 
Q 1081 4138 1478 4444 
Q 1875 4750 2534 4750 
Q 2819 4750 3126 4704 
Q 3434 4659 3769 4569 
L 3769 3700 
Q 3475 3850 3212 3922 
Q 2950 3994 2700 3994 
Q 2459 3994 2326 3901 
Q 2194 3809 2194 3641 
Q 2194 3534 2270 3398 
Q 2347 3263 2497 3097 
z
M 1875 2322 
Q 1672 2175 1569 1989 
Q 1466 1803 1466 1581 
Q 1466 1222 1731 969 
Q 1997 716 2369 716 
Q 2578 716 2759 780 
Q 2941 844 3097 972 
L 1875 2322 
z
" transform="scale(0.015625)"/>
     </defs>
     <use xlink:href="#DejaVuSans-Bold-56"/>
     <use xlink:href="#DejaVuSans-Bold-69" x="75.642578"/>
     <use xlink:href="#DejaVuSans-Bold-62" x="109.919922"/>
     <use xlink:href="#DejaVuSans-Bold-65" x="181.501953"/>
     <use xlink:href="#DejaVuSans-Bold-46" x="249.324219"/>
     <use xlink:href="#DejaVuSans-Bold-6c" x="317.634766"/>
     <use xlink:href="#DejaVuSans-Bold-6f" x="351.912109"/>
     <use xlink:href="#DejaVuSans-Bold-20" x="420.613281"/>
     <use xlink:href="#DejaVuSans-Bold-53" x="455.427734"/>
     <use xlink:href="#DejaVuSans-Bold-79" x="527.449219"/>
     <use xlink:href="#DejaVuSans-Bold-73" x="592.634766"/>
     <use xlink:href="#DejaVuSans-Bold-74" x="652.15625"/>
     <use xlink:href="#DejaVuSans-Bold-65" x="699.958984"/>
     <use xlink:href="#DejaVuSans-Bold-6d" x="767.78125"/>
     <use xlink:href="#DejaVuSans-Bold-20" x="871.980469"/>
     <use xlink:href="#DejaVuSans-Bold-41" x="906.794922"/>
     <use xlink:href="#DejaVuSans-Bold-72" x="984.1875"/>
     <use xlink:href="#DejaVuSans-Bold-63" x="1033.503906"/>
     <use xlink:href="#DejaVuSans-Bold-68" x="1092.78125"/>
     <use xlink:href="#DejaVuSans-Bold-69" x="1163.972656"/>
     <use xlink:href="#DejaVuSans-Bold-74" x="1198.25"/>
     <use xlink:href="#DejaVuSans-Bold-65" x="1246.052734"/>
     <use xlink:href="#DejaVuSans-Bold-63" x="1313.875"/>
     <use xlink:href="#DejaVuSans-Bold-74" x="1373.152344"/>
     <use xlink:href="#DejaVuSans-Bold-75" x="1420.955078"/>
     <use xlink:href="#DejaVuSans-Bold-72" x="1492.146484"/>
     <use xlink:href="#DejaVuSans-Bold-65" x="1541.462891"/>
     <use xlink:href="#DejaVuSans-Bold-20" x="1609.285156"/>
     <use xlink:href="#DejaVuSans-Bold-2d" x="1644.099609"/>
     <use xlink:href="#DejaVuSans-Bold-20" x="1685.603516"/>
     <use xlink:href="#DejaVuSans-Bold-43" x="1720.417969"/>
     <use xlink:href="#DejaVuSans-Bold-6f" x="1793.806641"/>
     <use xlink:href="#DejaVuSans-Bold-6c" x="1862.507812"/>
     <use xlink:href="#DejaVuSans-Bold-6f" x="1896.785156"/>
     <use xlink:href="#DejaVuSans-Bold-72" x="1965.486328"/>
     <use xlink:href="#DejaVuSans-Bold-2d" x="2014.802734"/>
     <use xlink:href="#DejaVuSans-Bold-43" x="2056.306641"/>
     <use xlink:href="#DejaVuSans-Bold-6f" x="2129.695312"/>
     <use xlink:href="#DejaVuSans-Bold-64" x="2198.396484"/>
     <use xlink:href="#DejaVuSans-Bold-65" x="2269.978516"/>
     <use xlink:href="#DejaVuSans-Bold-64" x="2337.800781"/>
     <use xlink:href="#DejaVuSans-Bold-20" x="2409.382812"/>
     <use xlink:href="#DejaVuSans-Bold-26" x="2444.197266"/>
     <use xlink:href="#DejaVuSans-Bold-20" x="2531.404297"/>
     <use xlink:href="#DejaVuSans-Bold-41" x="2566.21875"/>
     <use xlink:href="#DejaVuSans-Bold-6e" x="2643.611328"/>
     <use xlink:href="#DejaVuSans-Bold-6e" x="2714.802734"/>
     <use xlink:href="#DejaVuSans-Bold-6f" x="2785.994141"/>
     <use xlink:href="#DejaVuSans-Bold-74" x="2854.695312"/>
     <use xlink:href="#DejaVuSans-Bold-61" x="2902.498047"/>
     <use xlink:href="#DejaVuSans-Bold-74" x="2969.978516"/>
     <use xlink:href="#DejaVuSans-Bold-65" x="3017.78125"/>
     <use xlink:href="#DejaVuSans-Bold-64" x="3085.603516"/>
    </g>
   </g>
   <g id="legend_1">
    <g id="patch_19">
     <path d="M 8.4 80.055 
L 189.19125 80.055 
Q 191.59125 80.055 191.59125 77.655 
L 191.59125 8.4 
Q 191.59125 6 189.19125 6 
L 8.4 6 
Q 6 6 6 8.4 
L 6 77.655 
Q 6 80.055 8.4 80.055 
z
" style="fill: #ffffff; opacity: 0.8; stroke: #cccccc; stroke-linejoin: miter"/>
    </g>
    <g id="line2d_5">
     <path d="M 10.8 15.718125 
L 22.8 15.718125 
L 34.8 15.718125 
" style="fill: none; stroke: #0000ff; stroke-width: 1.5; stroke-linecap: square"/>
    </g>
    <g id="text_32">
     <!-- Frontend  Backend -->
     <g style="fill: #333333" transform="translate(44.4 19.918125) scale(0.12 -0.12)">
      <defs>
       <path id="DejaVuSans-46" d="M 628 4666 
L 3309 4666 
L 3309 4134 
L 1259 4134 
L 1259 2759 
L 3109 2759 
L 3109 2228 
L 1259 2228 
L 1259 0 
L 628 0 
L 628 4666 
z
" transform="scale(0.015625)"/>
       <path id="DejaVuSans-2192" d="M 5050 2147 
L 5050 1866 
L 3822 638 
L 3447 1013 
L 4175 1741 
L 366 1741 
L 366 2272 
L 4175 2272 
L 3447 3000 
L 3822 3375 
L 5050 2147 
z
" transform="scale(0.015625)"/>
      </defs>
      <use xlink:href="#DejaVuSans-46"/>
      <use xlink:href="#DejaVuSans-72" x="50.269531"/>
      <use xlink:href="#DejaVuSans-6f" x="89.132812"/>
      <use xlink:href="#DejaVuSans-6e" x="150.314453"/>
      <use xlink:href="#DejaVuSans-74" x="213.693359"/>
      <use xlink:href="#DejaVuSans-65" x="252.902344"/>
      <use xlink:href="#DejaVuSans-6e" x="314.425781"/>
      <use xlink:href="#DejaVuSans-64" x="377.804688"/>
      <use xlink:href="#DejaVuSans-20" x="441.28125"/>
      <use xlink:href="#DejaVuSans-2192" x="473.068359"/>
      <use xlink:href="#DejaVuSans-20" x="556.857422"/>
      <use xlink:href="#DejaVuSans-42" x="588.644531"/>
      <use xlink:href="#DejaVuSans-61" x="657.248047"/>
      <use xlink:href="#DejaVuSans-63" x="718.527344"/>
      <use xlink:href="#DejaVuSans-6b" x="773.507812"/>
      <use xlink:href="#DejaVuSans-65" x="827.792969"/>
      <use xlink:href="#DejaVuSans-6e" x="889.316406"/>
      <use xlink:href="#DejaVuSans-64" x="952.695312"/>
     </g>
    </g>
    <g id="line2d_6">
     <path d="M 10.8 33.331875 
L 22.8 33.331875 
L 34.8 33.331875 
" style="fill: none; stroke: #008000; stroke-width: 1.5; stroke-linecap: square"/>
    </g>
    <g id="text_33">
     <!-- Backend  Database -->
     <g style="fill: #333333" transform="translate(44.4 37.531875) scale(0.12 -0.12)">
      <use xlink:href="#DejaVuSans-42"/>
      <use xlink:href="#DejaVuSans-61" x="68.603516"/>
      <use xlink:href="#DejaVuSans-63" x="129.882812"/>
      <use xlink:href="#DejaVuSans-6b" x="184.863281"/>
      <use xlink:href="#DejaVuSans-65" x="239.148438"/>
      <use xlink:href="#DejaVuSans-6e" x="300.671875"/>
      <use xlink:href="#DejaVuSans-64" x="364.050781"/>
      <use xlink:href="#DejaVuSans-20" x="427.527344"/>
      <use xlink:href="#DejaVuSans-2192" x="459.314453"/>
      <use xlink:href="#DejaVuSans-20" x="543.103516"/>
      <use xlink:href="#DejaVuSans-44" x="574.890625"/>
      <use xlink:href="#DejaVuSans-61" x="651.892578"/>
      <use xlink:href="#DejaVuSans-74" x="713.171875"/>
      <use xlink:href="#DejaVuSans-61" x="752.380859"/>
      <use xlink:href="#DejaVuSans-62" x="813.660156"/>
      <use xlink:href="#DejaVuSans-61" x="877.136719"/>
      <use xlink:href="#DejaVuSans-73" x="938.416016"/>
      <use xlink:href="#DejaVuSans-65" x="990.515625"/>
     </g>
    </g>
    <g id="line2d_7">
     <path d="M 10.8 50.945625 
L 22.8 50.945625 
L 34.8 50.945625 
" style="fill: none; stroke: #ffa500; stroke-width: 1.5; stroke-linecap: square"/>
    </g>
    <g id="text_34">
     <!-- Backend  Integrations -->
     <g style="fill: #333333" transform="translate(44.4 55.145625) scale(0.12 -0.12)">
      <use xlink:href="#DejaVuSans-42"/>
      <use xlink:href="#DejaVuSans-61" x="68.603516"/>
      <use xlink:href="#DejaVuSans-63" x="129.882812"/>
      <use xlink:href="#DejaVuSans-6b" x="184.863281"/>
      <use xlink:href="#DejaVuSans-65" x="239.148438"/>
      <use xlink:href="#DejaVuSans-6e" x="300.671875"/>
      <use xlink:href="#DejaVuSans-64" x="364.050781"/>
      <use xlink:href="#DejaVuSans-20" x="427.527344"/>
      <use xlink:href="#DejaVuSans-2192" x="459.314453"/>
      <use xlink:href="#DejaVuSans-20" x="543.103516"/>
      <use xlink:href="#DejaVuSans-49" x="574.890625"/>
      <use xlink:href="#DejaVuSans-6e" x="604.382812"/>
      <use xlink:href="#DejaVuSans-74" x="667.761719"/>
      <use xlink:href="#DejaVuSans-65" x="706.970703"/>
      <use xlink:href="#DejaVuSans-67" x="768.494141"/>
      <use xlink:href="#DejaVuSans-72" x="831.970703"/>
      <use xlink:href="#DejaVuSans-61" x="873.083984"/>
      <use xlink:href="#DejaVuSans-74" x="934.363281"/>
      <use xlink:href="#DejaVuSans-69" x="973.572266"/>
      <use xlink:href="#DejaVuSans-6f" x="1001.355469"/>
      <use xlink:href="#DejaVuSans-6e" x="1062.537109"/>
      <use xlink:href="#DejaVuSans-73" x="1125.916016"/>
     </g>
    </g>
    <g id="line2d_8">
     <path d="M 10.8 68.559375 
L 22.8 68.559375 
L 34.8 68.559375 
" style="fill: none; stroke: #800080; stroke-width: 1.5; stroke-linecap: square"/>
    </g>
    <g id="text_35">
     <!-- Backend  Deployment -->
     <g style="fill: #333333" transform="translate(44.4 72.759375) scale(0.12 -0.12)">
      <use xlink:href="#DejaVuSans-42"/>
      <use xlink:href="#DejaVuSans-61" x="68.603516"/>
      <use xlink:href="#DejaVuSans-63" x="129.882812"/>
      <use xlink:href="#DejaVuSans-6b" x="184.863281"/>
      <use xlink:href="#DejaVuSans-65" x="239.148438"/>
      <use xlink:href="#DejaVuSans-6e" x="300.671875"/>
      <use xlink:href="#DejaVuSans-64" x="364.050781"/>
      <use xlink:href="#DejaVuSans-20" x="427.527344"/>
      <use xlink:href="#DejaVuSans-2192" x="459.314453"/>
      <use xlink:href="#DejaVuSans-20" x="543.103516"/>
      <use xlink:href="#DejaVuSans-44" x="574.890625"/>
      <use xlink:href="#DejaVuSans-65" x="651.892578"/>
      <use xlink:href="#DejaVuSans-70" x="713.416016"/>
      <use xlink:href="#DejaVuSans-6c" x="776.892578"/>
      <use xlink:href="#DejaVuSans-6f" x="804.675781"/>
      <use xlink:href="#DejaVuSans-79" x="865.857422"/>
      <use xlink:href="#DejaVuSans-6d" x="925.037109"/>
      <use xlink:href="#DejaVuSans-65" x="1022.449219"/>
      <use xlink:href="#DejaVuSans-6e" x="1083.972656"/>
      <use xlink:href="#DejaVuSans-74" x="1147.351562"/>
     </g>
    </g>
   </g>
  </g>
 </g>
 <defs>
  <clipPath id="pdf4489cca8">
   <rect x="0" y="0" width="1584" height="1008"/>
  </clipPath>
 </defs>
</svg>
